<svg version="1.1" xmlns="http://www.w3.org/2000/svg" xmlns:xlink="http://www.w3.org/1999/xlink" width="800" height="800"><defs/><g transform="scale(2,2)"><g id="background-88c568f5"><rect fill="white" stroke="none" x="0" y="0" width="400" height="400" class="dcg-svg-background"/></g><g id="background-images-88c568f5"/><g id="graphpaper-88c568f5"><g id="grid-88c568f5"><g><path fill="none" stroke="rgb(0,0,0)" class="dcg-svg-minor-gridline" paint-order="fill stroke markers" d=" M 100.5 0 L 100.5 400" stroke-opacity="0.2" stroke-miterlimit="10" stroke-dasharray=""/><path fill="none" stroke="rgb(0,0,0)" class="dcg-svg-minor-gridline" paint-order="fill stroke markers" d=" M 300.5 0 L 300.5 400" stroke-opacity="0.2" stroke-miterlimit="10" stroke-dasharray=""/><path fill="none" stroke="rgb(0,0,0)" class="dcg-svg-minor-gridline" paint-order="fill stroke markers" d=" M 0 300.5 L 400 300.5" stroke-opacity="0.2" stroke-miterlimit="10" stroke-dasharray=""/><path fill="none" stroke="rgb(0,0,0)" class="dcg-svg-minor-gridline" paint-order="fill stroke markers" d=" M 0 100.5 L 400 100.5" stroke-opacity="0.2" stroke-miterlimit="10" stroke-dasharray=""/><path fill="none" stroke="rgb(0,0,0)" class="dcg-svg-major-gridline" paint-order="fill stroke markers" d=" M 100.5 0 L 100.5 400" stroke-opacity="0.2500000000000001" stroke-miterlimit="10" stroke-dasharray=""/><path fill="none" stroke="rgb(0,0,0)" class="dcg-svg-major-gridline" paint-order="fill stroke markers" d=" M 300.5 0 L 300.5 400" stroke-opacity="0.2500000000000001" stroke-miterlimit="10" stroke-dasharray=""/><path fill="none" stroke="rgb(0,0,0)" class="dcg-svg-major-gridline" paint-order="fill stroke markers" d=" M 0 300.5 L 400 300.5" stroke-opacity="0.2500000000000001" stroke-miterlimit="10" stroke-dasharray=""/><path fill="none" stroke="rgb(0,0,0)" class="dcg-svg-major-gridline" paint-order="fill stroke markers" d=" M 0 100.5 L 400 100.5" stroke-opacity="0.2500000000000001" stroke-miterlimit="10" stroke-dasharray=""/></g></g><g id="axis-88c568f5"><g id="yaxis-88c568f5"><title>Y axis</title><g><path fill="none" stroke="rgb(0,0,0)" class="dcg-svg-axis-line" paint-order="fill stroke markers" d=" M 200 3 L 200 400" stroke-opacity="0.9" stroke-miterlimit="10" stroke-width="1.5" stroke-dasharray=""/><g class="dcg-svg-axis-line"><path fill="rgb(0,0,0)" stroke="rgb(0,0,0)" class="dcg-svg-axis-line" paint-order="stroke fill markers" d=" M 200 1.5 L 203.10582854123024 13.09110991546882 L 196.89417145876976 13.09110991546882 L 200 1.5 L 203.10582854123024 13.09110991546882" stroke-opacity="0.9" stroke-linejoin="round" stroke-miterlimit="10" stroke-width="1.5" stroke-dasharray="" fill-opacity="0.9"/></g></g></g><g id="xaxis-88c568f5"><title>X axis</title><g><path fill="none" stroke="rgb(0,0,0)" class="dcg-svg-axis-line" paint-order="fill stroke markers" d=" M 0 200 L 397 200" stroke-opacity="0.9" stroke-miterlimit="10" stroke-width="1.5" stroke-dasharray=""/><g class="dcg-svg-axis-line"><path fill="rgb(0,0,0)" stroke="rgb(0,0,0)" class="dcg-svg-axis-line" paint-order="stroke fill markers" d=" M 398.5 200 L 386.9088900845312 203.10582854123027 L 386.9088900845312 196.89417145876976 L 398.5 200 L 386.9088900845312 203.10582854123027" stroke-opacity="0.9" stroke-linejoin="round" stroke-miterlimit="10" stroke-width="1.5" stroke-dasharray="" fill-opacity="0.9"/></g></g></g><g><g class="dcg-svg-axis-value"><text fill="none" stroke="#ffffff" font-family="Arial" font-size="14px" font-style="normal" font-weight="normal" text-decoration="normal" x="191.10693359375" y="215.808" text-anchor="middle" stroke-miterlimit="2" stroke-width="3" stroke-dasharray="">0</text><text fill="#000000" stroke="none" font-family="Arial" font-size="14px" font-style="normal" font-weight="normal" text-decoration="normal" x="191.10693359375" y="215.808" text-anchor="middle">0</text></g><g class="dcg-svg-axis-value dcg-svg-offcenter-axis-value"><text fill="none" stroke="#ffffff" font-family="Arial" font-size="14px" font-style="normal" font-weight="normal" text-decoration="normal" x="13.1171875" y="215.808" text-anchor="middle" stroke-miterlimit="2" stroke-width="3" stroke-dasharray="">-10</text><text fill="#000000" stroke="none" font-family="Arial" font-size="14px" font-style="normal" font-weight="normal" text-decoration="normal" x="13.1171875" y="215.808" text-anchor="middle">-10</text></g><g class="dcg-svg-axis-value"><text fill="none" stroke="#ffffff" font-family="Arial" font-size="14px" font-style="normal" font-weight="normal" text-decoration="normal" x="97.6689453125" y="215.808" text-anchor="middle" stroke-miterlimit="2" stroke-width="3" stroke-dasharray="">-5</text><text fill="#000000" stroke="none" font-family="Arial" font-size="14px" font-style="normal" font-weight="normal" text-decoration="normal" x="97.6689453125" y="215.808" text-anchor="middle">-5</text></g><g class="dcg-svg-axis-value"><text fill="none" stroke="#ffffff" font-family="Arial" font-size="14px" font-style="normal" font-weight="normal" text-decoration="normal" x="300" y="215.808" text-anchor="middle" stroke-miterlimit="2" stroke-width="3" stroke-dasharray="">5</text><text fill="#000000" stroke="none" font-family="Arial" font-size="14px" font-style="normal" font-weight="normal" text-decoration="normal" x="300" y="215.808" text-anchor="middle">5</text></g><g class="dcg-svg-axis-value dcg-svg-offcenter-axis-value"><text fill="none" stroke="#ffffff" font-family="Arial" font-size="14px" font-style="normal" font-weight="normal" text-decoration="normal" x="389.2138671875" y="215.808" text-anchor="middle" stroke-miterlimit="2" stroke-width="3" stroke-dasharray="">10</text><text fill="#000000" stroke="none" font-family="Arial" font-size="14px" font-style="normal" font-weight="normal" text-decoration="normal" x="389.2138671875" y="215.808" text-anchor="middle">10</text></g><g class="dcg-svg-axis-value dcg-svg-offcenter-axis-value"><text fill="none" stroke="#ffffff" font-family="Arial" font-size="14px" font-style="normal" font-weight="normal" text-decoration="normal" x="184.8828125" y="393.808" text-anchor="middle" stroke-miterlimit="2" stroke-width="3" stroke-dasharray="">-10</text><text fill="#000000" stroke="none" font-family="Arial" font-size="14px" font-style="normal" font-weight="normal" text-decoration="normal" x="184.8828125" y="393.808" text-anchor="middle">-10</text></g><g class="dcg-svg-axis-value"><text fill="none" stroke="#ffffff" font-family="Arial" font-size="14px" font-style="normal" font-weight="normal" text-decoration="normal" x="188.77587890625" y="303.808" text-anchor="middle" stroke-miterlimit="2" stroke-width="3" stroke-dasharray="">-5</text><text fill="#000000" stroke="none" font-family="Arial" font-size="14px" font-style="normal" font-weight="normal" text-decoration="normal" x="188.77587890625" y="303.808" text-anchor="middle">-5</text></g><g class="dcg-svg-axis-value"><text fill="none" stroke="#ffffff" font-family="Arial" font-size="14px" font-style="normal" font-weight="normal" text-decoration="normal" x="191.10693359375" y="103.808" text-anchor="middle" stroke-miterlimit="2" stroke-width="3" stroke-dasharray="">5</text><text fill="#000000" stroke="none" font-family="Arial" font-size="14px" font-style="normal" font-weight="normal" text-decoration="normal" x="191.10693359375" y="103.808" text-anchor="middle">5</text></g><g class="dcg-svg-axis-value dcg-svg-offcenter-axis-value"><text fill="none" stroke="#ffffff" font-family="Arial" font-size="14px" font-style="normal" font-weight="normal" text-decoration="normal" x="187.2138671875" y="13.808" text-anchor="middle" stroke-miterlimit="2" stroke-width="3" stroke-dasharray="">10</text><text fill="#000000" stroke="none" font-family="Arial" font-size="14px" font-style="normal" font-weight="normal" text-decoration="normal" x="187.2138671875" y="13.808" text-anchor="middle">10</text></g></g></g></g><g id="expressions-88c568f5"><g id="sketch-88c568f5"><title>Expression 1</title><path fill="#c74440" stroke="none" paint-order="stroke fill markers" d="" fill-opacity="0.4"/><g><path fill="none" stroke="#c74440" class="dcg-svg-curve" paint-order="fill stroke markers" d=" M 0 189.11957778221262 L 0 189.11957778221262 L 3.90625 192.58327079643965 L 9.08203125 197.58350898233672 L 20.21484375 208.43764102442503 L 24.21875 211.87506719405943 L 27.5390625 214.37122149064004 L 30.46875 216.247523477085 L 33.203125 217.68545389391468 L 35.7421875 218.7256120190492 L 38.18359375 219.44169148537222 L 40.52734375 219.85700667281958 L 42.87109375 219.99993930291194 L 45.1171875 219.87947078317137 L 47.4609375 219.48679057114097 L 49.8046875 218.82680613053947 L 52.24609375 217.86488020835824 L 54.78515625 216.5826804110131 L 57.51953125 214.90404558391114 L 60.546875 212.72258119831375 L 63.96484375 209.91281649492376 L 68.06640625 206.16769165738253 L 74.21875 200.1175431797213 L 82.2265625 192.31281914303872 L 86.328125 188.7138935220065 L 89.74609375 186.0702614509482 L 92.7734375 184.06549268552087 L 95.5078125 182.5668317794928 L 98.046875 181.46603951947287 L 100.48828125 180.68873668944119 L 102.83203125 180.21280914338288 L 105.17578125 180.0083064770762 L 107.421875 180.06965319540504 L 109.765625 180.40133592996074 L 112.109375 181.00185748438983 L 114.55078125 181.9043537949437 L 117.08984375 183.1284020086428 L 119.82421875 184.74963788852534 L 122.75390625 186.8016036810438 L 126.07421875 189.46629492554297 L 130.078125 193.05754946404983 L 135.546875 198.38050313430884 L 145.41015625 208.01069656866062 L 149.51171875 211.57473134069627 L 152.9296875 214.17996970908052 L 155.95703125 216.14460362003229 L 158.69140625 217.60285631914715 L 161.23046875 218.6632739770561 L 163.671875 219.3997840760435 L 166.015625 219.8353033514266 L 168.359375 219.99873777828267 L 170.60546875 219.8979359546933 L 172.94921875 219.52552567463835 L 175.29296875 218.88527982880098 L 177.734375 217.9430581370518 L 180.2734375 216.68011253245606 L 183.0078125 215.02045083824686 L 186.03515625 212.85744486974647 L 189.453125 210.06479458366383 L 193.5546875 206.33432725853405 L 199.609375 200.39060016520503 L 207.91015625 192.29446303269964 L 212.01171875 188.69748056946153 L 215.4296875 186.05599760070172 L 218.45703125 184.0534816588638 L 221.19140625 182.55709320806614 L 223.73046875 181.4585747855332 L 226.171875 180.6835721042018 L 228.515625 180.20992545445588 L 230.859375 180.00774324060305 L 233.10546875 180.07132139246565 L 235.44921875 180.40530973895775 L 237.79296875 181.0080823957854 L 240.234375 181.91283236162812 L 242.7734375 183.13909006597538 L 245.5078125 184.76251204871357 L 248.4375 186.81655247914819 L 251.7578125 189.48320579676826 L 255.76171875 193.07620388408628 L 261.328125 198.49768828909401 L 270.99609375 207.93937821570307 L 275.09765625 211.51122253560177 L 278.515625 214.12501942218177 L 281.54296875 216.09857977106648 L 284.27734375 217.56580586147373 L 286.81640625 218.6351788845281 L 289.2578125 219.38072817314603 L 291.6015625 219.82519361459464 L 293.9453125 219.99771288481122 L 296.19140625 219.90563219109413 L 298.53515625 219.54221715284987 L 300.87890625 218.91073758845695 L 303.3203125 217.9772743763338 L 305.859375 216.72289563449414 L 308.59375 215.07168596790973 L 311.62109375 212.91691623190542 L 315.0390625 210.13192185327583 L 319.140625 206.40804432206886 L 325.09765625 200.56597432601365 L 333.59375 192.27611454153495 L 337.6953125 188.68107879275897 L 341.11328125 186.0417475381752 L 344.140625 184.04148639999877 L 346.875 182.54737188404863 L 349.4140625 181.45112838520902 L 351.85546875 180.6784266188945 L 354.19921875 180.20706133379906 L 356.54296875 180.00719977231623 L 358.7890625 180.07300929484705 L 361.1328125 180.40930292303048 L 363.4765625 181.0143260862398 L 365.91796875 181.92132881276174 L 368.45703125 183.14979479524314 L 371.19140625 184.77540127561014 L 374.21875 186.90517168183226 L 377.5390625 189.58336773916056 L 381.54296875 193.1865983002934 L 387.109375 198.61492533567272 L 396.58203125 207.86793982025384 L 400 210.88042221778738" stroke-linecap="round" stroke-linejoin="round" stroke-miterlimit="10" stroke-width="2.5" stroke-opacity="0.9" stroke-dasharray=""/></g></g></g><g id="labels-88c568f5"/></g></svg>