<svg version="1.1" xmlns="http://www.w3.org/2000/svg" xmlns:xlink="http://www.w3.org/1999/xlink" width="800" height="800"><defs/><g transform="scale(2,2)"><g id="background-bc9b70f6"><rect fill="white" stroke="none" x="0" y="0" width="400" height="400" class="dcg-svg-background"/></g><g id="background-images-bc9b70f6"/><g id="graphpaper-bc9b70f6"><g id="grid-bc9b70f6"><g><path fill="none" stroke="rgb(0,0,0)" class="dcg-svg-minor-gridline" paint-order="fill stroke markers" d=" M 100.5 0 L 100.5 400" stroke-opacity="0.2" stroke-miterlimit="10" stroke-dasharray=""/><path fill="none" stroke="rgb(0,0,0)" class="dcg-svg-minor-gridline" paint-order="fill stroke markers" d=" M 300.5 0 L 300.5 400" stroke-opacity="0.2" stroke-miterlimit="10" stroke-dasharray=""/><path fill="none" stroke="rgb(0,0,0)" class="dcg-svg-minor-gridline" paint-order="fill stroke markers" d=" M 0 300.5 L 400 300.5" stroke-opacity="0.2" stroke-miterlimit="10" stroke-dasharray=""/><path fill="none" stroke="rgb(0,0,0)" class="dcg-svg-minor-gridline" paint-order="fill stroke markers" d=" M 0 100.5 L 400 100.5" stroke-opacity="0.2" stroke-miterlimit="10" stroke-dasharray=""/><path fill="none" stroke="rgb(0,0,0)" class="dcg-svg-major-gridline" paint-order="fill stroke markers" d=" M 100.5 0 L 100.5 400" stroke-opacity="0.2500000000000001" stroke-miterlimit="10" stroke-dasharray=""/><path fill="none" stroke="rgb(0,0,0)" class="dcg-svg-major-gridline" paint-order="fill stroke markers" d=" M 300.5 0 L 300.5 400" stroke-opacity="0.2500000000000001" stroke-miterlimit="10" stroke-dasharray=""/><path fill="none" stroke="rgb(0,0,0)" class="dcg-svg-major-gridline" paint-order="fill stroke markers" d=" M 0 300.5 L 400 300.5" stroke-opacity="0.2500000000000001" stroke-miterlimit="10" stroke-dasharray=""/><path fill="none" stroke="rgb(0,0,0)" class="dcg-svg-major-gridline" paint-order="fill stroke markers" d=" M 0 100.5 L 400 100.5" stroke-opacity="0.2500000000000001" stroke-miterlimit="10" stroke-dasharray=""/></g></g><g id="axis-bc9b70f6"><g id="yaxis-bc9b70f6"><title>Y axis</title><g><path fill="none" stroke="rgb(0,0,0)" class="dcg-svg-axis-line" paint-order="fill stroke markers" d=" M 200 3 L 200 400" stroke-opacity="0.9" stroke-miterlimit="10" stroke-width="1.5" stroke-dasharray=""/><g class="dcg-svg-axis-line"><path fill="rgb(0,0,0)" stroke="rgb(0,0,0)" class="dcg-svg-axis-line" paint-order="stroke fill markers" d=" M 200 1.5 L 203.10582854123024 13.09110991546882 L 196.89417145876976 13.09110991546882 L 200 1.5 L 203.10582854123024 13.09110991546882" stroke-opacity="0.9" stroke-linejoin="round" stroke-miterlimit="10" stroke-width="1.5" stroke-dasharray="" fill-opacity="0.9"/></g></g></g><g id="xaxis-bc9b70f6"><title>X axis</title><g><path fill="none" stroke="rgb(0,0,0)" class="dcg-svg-axis-line" paint-order="fill stroke markers" d=" M 0 200 L 397 200" stroke-opacity="0.9" stroke-miterlimit="10" stroke-width="1.5" stroke-dasharray=""/><g class="dcg-svg-axis-line"><path fill="rgb(0,0,0)" stroke="rgb(0,0,0)" class="dcg-svg-axis-line" paint-order="stroke fill markers" d=" M 398.5 200 L 386.9088900845312 203.10582854123027 L 386.9088900845312 196.89417145876976 L 398.5 200 L 386.9088900845312 203.10582854123027" stroke-opacity="0.9" stroke-linejoin="round" stroke-miterlimit="10" stroke-width="1.5" stroke-dasharray="" fill-opacity="0.9"/></g></g></g><g><g class="dcg-svg-axis-value"><text fill="none" stroke="#ffffff" font-family="Arial" font-size="14px" font-style="normal" font-weight="normal" text-decoration="normal" x="191.10693359375" y="215.808" text-anchor="middle" stroke-miterlimit="2" stroke-width="3" stroke-dasharray="">0</text><text fill="#000000" stroke="none" font-family="Arial" font-size="14px" font-style="normal" font-weight="normal" text-decoration="normal" x="191.10693359375" y="215.808" text-anchor="middle">0</text></g><g class="dcg-svg-axis-value dcg-svg-offcenter-axis-value"><text fill="none" stroke="#ffffff" font-family="Arial" font-size="14px" font-style="normal" font-weight="normal" text-decoration="normal" x="13.1171875" y="215.808" text-anchor="middle" stroke-miterlimit="2" stroke-width="3" stroke-dasharray="">-10</text><text fill="#000000" stroke="none" font-family="Arial" font-size="14px" font-style="normal" font-weight="normal" text-decoration="normal" x="13.1171875" y="215.808" text-anchor="middle">-10</text></g><g class="dcg-svg-axis-value"><text fill="none" stroke="#ffffff" font-family="Arial" font-size="14px" font-style="normal" font-weight="normal" text-decoration="normal" x="97.6689453125" y="215.808" text-anchor="middle" stroke-miterlimit="2" stroke-width="3" stroke-dasharray="">-5</text><text fill="#000000" stroke="none" font-family="Arial" font-size="14px" font-style="normal" font-weight="normal" text-decoration="normal" x="97.6689453125" y="215.808" text-anchor="middle">-5</text></g><g class="dcg-svg-axis-value"><text fill="none" stroke="#ffffff" font-family="Arial" font-size="14px" font-style="normal" font-weight="normal" text-decoration="normal" x="300" y="215.808" text-anchor="middle" stroke-miterlimit="2" stroke-width="3" stroke-dasharray="">5</text><text fill="#000000" stroke="none" font-family="Arial" font-size="14px" font-style="normal" font-weight="normal" text-decoration="normal" x="300" y="215.808" text-anchor="middle">5</text></g><g class="dcg-svg-axis-value dcg-svg-offcenter-axis-value"><text fill="none" stroke="#ffffff" font-family="Arial" font-size="14px" font-style="normal" font-weight="normal" text-decoration="normal" x="389.2138671875" y="215.808" text-anchor="middle" stroke-miterlimit="2" stroke-width="3" stroke-dasharray="">10</text><text fill="#000000" stroke="none" font-family="Arial" font-size="14px" font-style="normal" font-weight="normal" text-decoration="normal" x="389.2138671875" y="215.808" text-anchor="middle">10</text></g><g class="dcg-svg-axis-value dcg-svg-offcenter-axis-value"><text fill="none" stroke="#ffffff" font-family="Arial" font-size="14px" font-style="normal" font-weight="normal" text-decoration="normal" x="184.8828125" y="393.808" text-anchor="middle" stroke-miterlimit="2" stroke-width="3" stroke-dasharray="">-10</text><text fill="#000000" stroke="none" font-family="Arial" font-size="14px" font-style="normal" font-weight="normal" text-decoration="normal" x="184.8828125" y="393.808" text-anchor="middle">-10</text></g><g class="dcg-svg-axis-value"><text fill="none" stroke="#ffffff" font-family="Arial" font-size="14px" font-style="normal" font-weight="normal" text-decoration="normal" x="188.77587890625" y="303.808" text-anchor="middle" stroke-miterlimit="2" stroke-width="3" stroke-dasharray="">-5</text><text fill="#000000" stroke="none" font-family="Arial" font-size="14px" font-style="normal" font-weight="normal" text-decoration="normal" x="188.77587890625" y="303.808" text-anchor="middle">-5</text></g><g class="dcg-svg-axis-value"><text fill="none" stroke="#ffffff" font-family="Arial" font-size="14px" font-style="normal" font-weight="normal" text-decoration="normal" x="191.10693359375" y="103.808" text-anchor="middle" stroke-miterlimit="2" stroke-width="3" stroke-dasharray="">5</text><text fill="#000000" stroke="none" font-family="Arial" font-size="14px" font-style="normal" font-weight="normal" text-decoration="normal" x="191.10693359375" y="103.808" text-anchor="middle">5</text></g><g class="dcg-svg-axis-value dcg-svg-offcenter-axis-value"><text fill="none" stroke="#ffffff" font-family="Arial" font-size="14px" font-style="normal" font-weight="normal" text-decoration="normal" x="187.2138671875" y="13.808" text-anchor="middle" stroke-miterlimit="2" stroke-width="3" stroke-dasharray="">10</text><text fill="#000000" stroke="none" font-family="Arial" font-size="14px" font-style="normal" font-weight="normal" text-decoration="normal" x="187.2138671875" y="13.808" text-anchor="middle">10</text></g></g></g></g><g id="expressions-bc9b70f6"><g id="sketch-bc9b70f6"><title>Expression 1</title><path fill="#c74440" stroke="none" paint-order="stroke fill markers" d="" fill-opacity="0.4"/><g><path fill="none" stroke="#c74440" class="dcg-svg-curve" paint-order="fill stroke markers" d=" M 0 216.78143058152904 L 0 216.78143058152904 L 2.63671875 218.06608409644946 L 5.17578125 219.00702886157757 L 7.51953125 219.60432398962897 L 9.86328125 219.93270265955073 L 12.109375 219.99085206233443 L 14.35546875 219.79713487136044 L 16.69921875 219.32914138738738 L 19.04296875 218.59600618042842 L 21.484375 217.5612624521376 L 24.12109375 216.15073355803463 L 26.953125 214.32428008886285 L 30.078125 211.97776454705823 L 33.69140625 208.9049034608388 L 38.18359375 204.6926146429901 L 54.19921875 189.3095515047945 L 57.71484375 186.5183212648493 L 60.83984375 184.3836429043393 L 63.671875 182.7765139247187 L 66.30859375 181.5895847141681 L 68.75 180.77510797743705 L 71.09375 180.26227700979834 L 73.4375 180.02019236123076 L 75.68359375 180.04536326615275 L 77.9296875 180.3219444845599 L 80.2734375 180.8747892860413 L 82.71484375 181.72948519328924 L 85.25390625 182.90659139809924 L 87.98828125 184.4812874369998 L 90.91796875 186.48896779531148 L 94.23828125 189.1116092080216 L 98.14453125 192.574450525626 L 103.3203125 197.57408048364152 L 114.453125 208.42902838032904 L 118.45703125 211.86742302922622 L 121.77734375 214.36461410567915 L 124.70703125 216.24198283221088 L 127.44140625 217.68101644319387 L 129.98046875 218.7222735812429 L 132.421875 219.43946068632857 L 134.765625 219.8558706536266 L 137.109375 219.99991364657353 L 139.35546875 219.8805097537836 L 141.69921875 219.4889262949747 L 144.04296875 218.83000931144102 L 146.484375 217.86914839081172 L 149.0234375 216.5879885965204 L 151.7578125 214.91037777333202 L 154.78515625 212.7299085314736 L 158.203125 209.9210649624179 L 162.3046875 206.1767263860126 L 168.45703125 200.12704135975952 L 176.46484375 192.32158873852765 L 180.56640625 188.72173631727009 L 183.984375 186.07707875319687 L 187.01171875 184.07123473436923 L 189.74609375 182.5714890222515 L 192.28515625 181.46961115715803 L 194.7265625 180.6912100429021 L 197.0703125 180.21419330244765 L 199.4140625 180.0085824549563 L 201.66015625 180.06886341495283 L 204.00390625 180.39944486910937 L 206.34765625 180.99889108320167 L 208.7890625 181.90031072879503 L 211.328125 183.12330325846185 L 214.0625 184.74349448578846 L 216.9921875 186.79446871133882 L 220.3125 189.45822193625295 L 224.31640625 193.04864249952746 L 229.78515625 198.37103615083166 L 239.6484375 208.00199249582676 L 243.75 211.56698398673666 L 247.16796875 214.17326977335458 L 250.1953125 216.13899551967282 L 252.9296875 217.59834537841022 L 255.46875 218.65985767181976 L 257.91015625 219.3974723817777 L 260.25390625 219.83408466259476 L 262.59765625 219.99862881188477 L 264.84375 219.8988920738953 L 267.1875 219.5275801383246 L 269.53125 218.8884044554796 L 271.97265625 217.94725172906408 L 274.51171875 216.68535142644015 L 277.24609375 215.02672068708816 L 280.2734375 212.8647189090112 L 283.69140625 210.07300142417583 L 287.79296875 206.34333592886998 L 293.75 200.49772821674804 L 302.1484375 192.3032289956607 L 306.25 188.70531803284786 L 309.66796875 186.06280832288553 L 312.6953125 184.05921618117515 L 315.4296875 182.561742216827 L 317.96875 181.46213766965292 L 320.41015625 180.6860363373005 L 322.75390625 180.21130026868346 L 325.09765625 180.008009777356 L 327.34375 180.07052220013247 L 329.6875 180.40340942314668 L 332.03125 181.00510702351093 L 334.47265625 181.90878075087412 L 337.01171875 183.13398334951717 L 339.74609375 184.7563614455962 L 342.67578125 186.80941127835743 L 345.99609375 189.47512783503234 L 350 193.06729364329948 L 355.46875 198.39085848428027 L 365.234375 207.9306594235042 L 369.3359375 211.5034538725245 L 372.75390625 214.11829335740745 L 375.78125 216.09294190434346 L 378.515625 217.5612624521376 L 381.0546875 218.63172814315297 L 383.49609375 219.37838067327124 L 385.83984375 219.82393830661616 L 388.18359375 219.99756698804129 L 390.4296875 219.9065515570375 L 392.7734375 219.5442355416831 L 395.1171875 218.9138273135341 L 397.55859375 217.98143479765957 L 400 216.78143058152904" stroke-linecap="round" stroke-linejoin="round" stroke-miterlimit="10" stroke-width="2.5" stroke-opacity="0.9" stroke-dasharray=""/></g></g></g><g id="labels-bc9b70f6"/></g></svg>