<svg version="1.1" xmlns="http://www.w3.org/2000/svg" xmlns:xlink="http://www.w3.org/1999/xlink" width="800" height="800"><defs/><g transform="scale(2,2)"><g id="background-57833943"><rect fill="white" stroke="none" x="0" y="0" width="400" height="400" class="dcg-svg-background"/></g><g id="background-images-57833943"/><g id="graphpaper-57833943"><g id="grid-57833943"><g><path fill="none" stroke="rgb(0,0,0)" class="dcg-svg-minor-gridline" paint-order="fill stroke markers" d=" M 100.5 0 L 100.5 400" stroke-opacity="0.2" stroke-miterlimit="10" stroke-dasharray=""/><path fill="none" stroke="rgb(0,0,0)" class="dcg-svg-minor-gridline" paint-order="fill stroke markers" d=" M 300.5 0 L 300.5 400" stroke-opacity="0.2" stroke-miterlimit="10" stroke-dasharray=""/><path fill="none" stroke="rgb(0,0,0)" class="dcg-svg-minor-gridline" paint-order="fill stroke markers" d=" M 0 300.5 L 400 300.5" stroke-opacity="0.2" stroke-miterlimit="10" stroke-dasharray=""/><path fill="none" stroke="rgb(0,0,0)" class="dcg-svg-minor-gridline" paint-order="fill stroke markers" d=" M 0 100.5 L 400 100.5" stroke-opacity="0.2" stroke-miterlimit="10" stroke-dasharray=""/><path fill="none" stroke="rgb(0,0,0)" class="dcg-svg-major-gridline" paint-order="fill stroke markers" d=" M 100.5 0 L 100.5 400" stroke-opacity="0.2500000000000001" stroke-miterlimit="10" stroke-dasharray=""/><path fill="none" stroke="rgb(0,0,0)" class="dcg-svg-major-gridline" paint-order="fill stroke markers" d=" M 300.5 0 L 300.5 400" stroke-opacity="0.2500000000000001" stroke-miterlimit="10" stroke-dasharray=""/><path fill="none" stroke="rgb(0,0,0)" class="dcg-svg-major-gridline" paint-order="fill stroke markers" d=" M 0 300.5 L 400 300.5" stroke-opacity="0.2500000000000001" stroke-miterlimit="10" stroke-dasharray=""/><path fill="none" stroke="rgb(0,0,0)" class="dcg-svg-major-gridline" paint-order="fill stroke markers" d=" M 0 100.5 L 400 100.5" stroke-opacity="0.2500000000000001" stroke-miterlimit="10" stroke-dasharray=""/></g></g><g id="axis-57833943"><g id="yaxis-57833943"><title>Y axis</title><g><path fill="none" stroke="rgb(0,0,0)" class="dcg-svg-axis-line" paint-order="fill stroke markers" d=" M 200 3 L 200 400" stroke-opacity="0.9" stroke-miterlimit="10" stroke-width="1.5" stroke-dasharray=""/><g class="dcg-svg-axis-line"><path fill="rgb(0,0,0)" stroke="rgb(0,0,0)" class="dcg-svg-axis-line" paint-order="stroke fill markers" d=" M 200 1.5 L 203.10582854123024 13.09110991546882 L 196.89417145876976 13.09110991546882 L 200 1.5 L 203.10582854123024 13.09110991546882" stroke-opacity="0.9" stroke-linejoin="round" stroke-miterlimit="10" stroke-width="1.5" stroke-dasharray="" fill-opacity="0.9"/></g></g></g><g id="xaxis-57833943"><title>X axis</title><g><path fill="none" stroke="rgb(0,0,0)" class="dcg-svg-axis-line" paint-order="fill stroke markers" d=" M 0 200 L 397 200" stroke-opacity="0.9" stroke-miterlimit="10" stroke-width="1.5" stroke-dasharray=""/><g class="dcg-svg-axis-line"><path fill="rgb(0,0,0)" stroke="rgb(0,0,0)" class="dcg-svg-axis-line" paint-order="stroke fill markers" d=" M 398.5 200 L 386.9088900845312 203.10582854123027 L 386.9088900845312 196.89417145876976 L 398.5 200 L 386.9088900845312 203.10582854123027" stroke-opacity="0.9" stroke-linejoin="round" stroke-miterlimit="10" stroke-width="1.5" stroke-dasharray="" fill-opacity="0.9"/></g></g></g><g><g class="dcg-svg-axis-value"><text fill="none" stroke="#ffffff" font-family="Arial" font-size="14px" font-style="normal" font-weight="normal" text-decoration="normal" x="191.10693359375" y="215.808" text-anchor="middle" stroke-miterlimit="2" stroke-width="3" stroke-dasharray="">0</text><text fill="#000000" stroke="none" font-family="Arial" font-size="14px" font-style="normal" font-weight="normal" text-decoration="normal" x="191.10693359375" y="215.808" text-anchor="middle">0</text></g><g class="dcg-svg-axis-value dcg-svg-offcenter-axis-value"><text fill="none" stroke="#ffffff" font-family="Arial" font-size="14px" font-style="normal" font-weight="normal" text-decoration="normal" x="13.1171875" y="215.808" text-anchor="middle" stroke-miterlimit="2" stroke-width="3" stroke-dasharray="">-10</text><text fill="#000000" stroke="none" font-family="Arial" font-size="14px" font-style="normal" font-weight="normal" text-decoration="normal" x="13.1171875" y="215.808" text-anchor="middle">-10</text></g><g class="dcg-svg-axis-value"><text fill="none" stroke="#ffffff" font-family="Arial" font-size="14px" font-style="normal" font-weight="normal" text-decoration="normal" x="97.6689453125" y="215.808" text-anchor="middle" stroke-miterlimit="2" stroke-width="3" stroke-dasharray="">-5</text><text fill="#000000" stroke="none" font-family="Arial" font-size="14px" font-style="normal" font-weight="normal" text-decoration="normal" x="97.6689453125" y="215.808" text-anchor="middle">-5</text></g><g class="dcg-svg-axis-value"><text fill="none" stroke="#ffffff" font-family="Arial" font-size="14px" font-style="normal" font-weight="normal" text-decoration="normal" x="300" y="215.808" text-anchor="middle" stroke-miterlimit="2" stroke-width="3" stroke-dasharray="">5</text><text fill="#000000" stroke="none" font-family="Arial" font-size="14px" font-style="normal" font-weight="normal" text-decoration="normal" x="300" y="215.808" text-anchor="middle">5</text></g><g class="dcg-svg-axis-value dcg-svg-offcenter-axis-value"><text fill="none" stroke="#ffffff" font-family="Arial" font-size="14px" font-style="normal" font-weight="normal" text-decoration="normal" x="389.2138671875" y="215.808" text-anchor="middle" stroke-miterlimit="2" stroke-width="3" stroke-dasharray="">10</text><text fill="#000000" stroke="none" font-family="Arial" font-size="14px" font-style="normal" font-weight="normal" text-decoration="normal" x="389.2138671875" y="215.808" text-anchor="middle">10</text></g><g class="dcg-svg-axis-value dcg-svg-offcenter-axis-value"><text fill="none" stroke="#ffffff" font-family="Arial" font-size="14px" font-style="normal" font-weight="normal" text-decoration="normal" x="184.8828125" y="393.808" text-anchor="middle" stroke-miterlimit="2" stroke-width="3" stroke-dasharray="">-10</text><text fill="#000000" stroke="none" font-family="Arial" font-size="14px" font-style="normal" font-weight="normal" text-decoration="normal" x="184.8828125" y="393.808" text-anchor="middle">-10</text></g><g class="dcg-svg-axis-value"><text fill="none" stroke="#ffffff" font-family="Arial" font-size="14px" font-style="normal" font-weight="normal" text-decoration="normal" x="188.77587890625" y="303.808" text-anchor="middle" stroke-miterlimit="2" stroke-width="3" stroke-dasharray="">-5</text><text fill="#000000" stroke="none" font-family="Arial" font-size="14px" font-style="normal" font-weight="normal" text-decoration="normal" x="188.77587890625" y="303.808" text-anchor="middle">-5</text></g><g class="dcg-svg-axis-value"><text fill="none" stroke="#ffffff" font-family="Arial" font-size="14px" font-style="normal" font-weight="normal" text-decoration="normal" x="191.10693359375" y="103.808" text-anchor="middle" stroke-miterlimit="2" stroke-width="3" stroke-dasharray="">5</text><text fill="#000000" stroke="none" font-family="Arial" font-size="14px" font-style="normal" font-weight="normal" text-decoration="normal" x="191.10693359375" y="103.808" text-anchor="middle">5</text></g><g class="dcg-svg-axis-value dcg-svg-offcenter-axis-value"><text fill="none" stroke="#ffffff" font-family="Arial" font-size="14px" font-style="normal" font-weight="normal" text-decoration="normal" x="187.2138671875" y="13.808" text-anchor="middle" stroke-miterlimit="2" stroke-width="3" stroke-dasharray="">10</text><text fill="#000000" stroke="none" font-family="Arial" font-size="14px" font-style="normal" font-weight="normal" text-decoration="normal" x="187.2138671875" y="13.808" text-anchor="middle">10</text></g></g></g></g><g id="expressions-57833943"><g id="sketch-57833943"><title>Expression 1</title><path fill="#c74440" stroke="none" paint-order="stroke fill markers" d="" fill-opacity="0.4"/><g><path fill="none" stroke="#c74440" class="dcg-svg-curve" paint-order="fill stroke markers" d=" M 0 223.8358701337579 L 0 223.8358701337579 L 1.85546875 222.57689134903347 L 3.80859375 221.577850150207 L 5.859375 220.82399962966156 L 8.0078125 220.30960207071493 L 10.25390625 220.03915970408227 L 12.5 220.0248040617447 L 14.74609375 220.26561454347828 L 16.89453125 220.74897712881187 L 18.9453125 221.46875463868324 L 20.8984375 222.428962723955 L 22.75390625 223.64237356908657 L 24.51171875 225.1299368654176 L 26.171875 226.92073815587065 L 27.734375 229.05230174468088 L 29.19921875 231.57106039702828 L 30.46875 234.29744983248963 L 31.640625 237.4139429330935 L 32.71484375 240.94850986200265 L 33.69140625 244.9190720325139 L 34.5703125 249.3243836423623 L 35.44921875 254.80505742974776 L 36.23046875 260.92135014583266 L 37.01171875 268.692270883811 L 37.6953125 277.4320478331558 L 38.37890625 288.8388699836155 L 38.96484375 301.7866880774137 L 39.55078125 319.2724058257713 L 40.0390625 339.3073748285103 L 40.52734375 367.55205775995876 L 40.91796875 400.09455405918163 L 40.96164166561802 405.5" stroke-linecap="round" stroke-linejoin="round" stroke-miterlimit="10" stroke-width="2.5" stroke-opacity="0.9" stroke-dasharray=""/></g><g><path fill="none" stroke="#c74440" class="dcg-svg-curve" paint-order="fill stroke markers" d=" M 44.895333434173686 -5.5 L 44.895333434173686 -5.5 L 45.21484375 25.28528903074482 L 45.703125 55.79285350860539 L 46.2890625 80.69635016351927 L 46.875 98.19068136364096 L 47.55859375 112.98222360067888 L 48.2421875 123.94339405347675 L 49.0234375 133.43087834054273 L 49.8046875 140.7335020938704 L 50.68359375 147.15804932016786 L 51.66015625 152.74255461024444 L 52.63671875 157.1671637272845 L 53.7109375 161.0691601900554 L 54.8828125 164.4818072041756 L 56.15234375 167.446810597138 L 57.51953125 170.00772976551858 L 58.984375 172.2060918090812 L 60.64453125 174.18287376259522 L 62.40234375 175.82192868481013 L 64.2578125 177.1609851020908 L 66.2109375 178.2277879818656 L 68.26171875 179.04064698093086 L 70.41015625 179.60834985484243 L 72.65625 179.92922825089482 L 74.90234375 179.99198701353214 L 77.1484375 179.80065438708465 L 79.39453125 179.34285291471502 L 81.4453125 178.66643123084046 L 83.3984375 177.7553165956388 L 85.25390625 176.59916700549005 L 87.01171875 175.1799441192167 L 88.671875 173.4721857845352 L 90.234375 171.44298264193503 L 91.69921875 169.0518564569012 L 92.96875 166.4728979574503 L 94.140625 163.53750388423995 L 95.21484375 160.2250683324642 L 96.19140625 156.52555802627464 L 97.16796875 151.94097629616886 L 98.046875 146.7811692363206 L 98.828125 141.06036134514295 L 99.609375 133.8484076948376 L 100.29296875 125.81203707070011 L 100.9765625 115.44063693104601 L 101.5625 103.82635669930364 L 102.1484375 88.40260881127102 L 102.734375 66.95079170641864 L 103.22265625 41.44760906477785 L 103.7109375 3.704170994221556 L 103.78857954008664 -5.5" stroke-linecap="round" stroke-linejoin="round" stroke-miterlimit="10" stroke-width="2.5" stroke-opacity="0.9" stroke-dasharray=""/></g><g><path fill="none" stroke="#c74440" class="dcg-svg-curve" paint-order="fill stroke markers" d=" M 107.73043475889568 405.5 L 107.73043475889568 405.5 L 108.0078125 377.71351828048466 L 108.49609375 346.23764126474447 L 109.08203125 320.683711715959 L 109.66796875 302.80716543669604 L 110.3515625 287.740273161956 L 111.03515625 276.6031852239771 L 111.81640625 266.9826833457336 L 112.59765625 259.5897887088814 L 113.4765625 253.09449734140622 L 114.453125 247.45505436112728 L 115.4296875 242.99121253432543 L 116.50390625 239.05773064310904 L 117.67578125 235.61989554891846 L 118.9453125 232.6347348178187 L 120.3125 230.05763296357367 L 121.77734375 227.84620575653733 L 123.4375 225.85821261260173 L 125.1953125 224.21009144177623 L 127.05078125 222.86356915688538 L 129.00390625 221.79047883453254 L 131.0546875 220.9721724383689 L 133.203125 220.39957603622918 L 135.44921875 220.07409588953666 L 137.6953125 220.00694960027832 L 139.94140625 220.19382671086035 L 142.1875 220.64681161162886 L 144.3359375 221.35695840448602 L 146.2890625 222.27665257953424 L 148.14453125 223.44278080863157 L 149.90234375 224.87388069278603 L 151.5625 226.59603207125312 L 153.125 228.64292653527747 L 154.58984375 231.05604565266407 L 155.859375 233.6603286427853 L 157.03125 236.6267265741016 L 158.10546875 239.97705114172032 L 159.08203125 243.72260836368406 L 160.05859375 248.36980490297185 L 160.9375 253.60751530122843 L 161.71875 259.4239723171016 L 162.5 266.77049340631044 L 163.18359375 274.9752900178713 L 163.8671875 285.59299022322995 L 164.453125 297.52199665559067 L 165.0390625 313.42763787273157 L 165.625 335.6718895669486 L 166.11328125 362.3039288105198 L 166.6015625 402.0951294838203 L 166.6284618154696 405.5" stroke-linecap="round" stroke-linejoin="round" stroke-miterlimit="10" stroke-width="2.5" stroke-opacity="0.9" stroke-dasharray=""/></g><g><path fill="none" stroke="#c74440" class="dcg-svg-curve" paint-order="fill stroke markers" d=" M 170.5567774821672 -5.5 L 170.5567774821672 -5.5 L 170.8984375 26.780012186597503 L 171.38671875 56.80951341694771 L 171.97265625 81.38988981665179 L 172.55859375 98.69343869152044 L 173.2421875 113.34704290727859 L 173.92578125 124.21983106220995 L 174.70703125 133.64033258359126 L 175.48828125 140.8974128491841 L 176.3671875 147.28621260417503 L 177.34375 152.8429193703629 L 178.3203125 157.24765367420167 L 179.39453125 161.13368441070506 L 180.56640625 164.53354778249164 L 181.8359375 167.4883127259228 L 183.203125 170.04100644046807 L 184.66796875 172.2327233222799 L 186.328125 174.20379954749322 L 188.0859375 175.8382375739276 L 189.94140625 177.1734898165291 L 191.89453125 178.23708703743404 L 193.9453125 179.04716688947659 L 196.09375 179.6123714372306 L 198.33984375 179.93089865732546 L 200.5859375 179.99141386053594 L 202.83203125 179.79780102557194 L 205.078125 179.33753257874454 L 207.12890625 178.6585428664428 L 209.08203125 177.7445304558232 L 210.9375 176.5850118906051 L 212.6953125 175.16178064753615 L 214.35546875 173.44916667312995 L 215.91796875 171.41399753569965 L 217.3828125 169.01545784895342 L 218.65234375 166.42796657209345 L 219.82421875 163.4821309695615 L 220.8984375 160.1569415697747 L 221.875 156.44193999677952 L 222.8515625 151.8363067883599 L 223.73046875 146.65032779148075 L 224.51171875 140.8974128491841 L 225.29296875 133.64033258359126 L 225.9765625 125.54754599089067 L 226.66015625 115.0937597701723 L 227.24609375 103.37437919049287 L 227.83203125 87.79003502954413 L 228.41796875 66.07486720332372 L 228.90625 40.1978613718739 L 229.39453125 1.7795817813309895 L 229.45460560927964 -5.5" stroke-linecap="round" stroke-linejoin="round" stroke-miterlimit="10" stroke-width="2.5" stroke-opacity="0.9" stroke-dasharray=""/></g><g><path fill="none" stroke="#c74440" class="dcg-svg-curve" paint-order="fill stroke markers" d=" M 233.39267373325401 405.5 L 233.39267373325401 405.5 L 233.69140625 376.1669289047585 L 234.1796875 345.1919719478112 L 234.765625 319.97384914672114 L 235.3515625 302.2943312043116 L 236.03515625 287.3692142744692 L 236.71875 276.322620232895 L 237.5 266.77049340631044 L 238.28125 259.4239723171016 L 239.16015625 252.9650050563269 L 240.13671875 247.35375774402883 L 241.11328125 242.91004378777424 L 242.1875 238.99271002421233 L 243.359375 235.56778964461301 L 244.62890625 232.59296158671467 L 245.99609375 230.02415309404043 L 247.4609375 227.8194201686888 L 249.12109375 225.83717022734274 L 250.87890625 224.19369255281995 L 252.734375 222.85099335842725 L 254.6875 221.78112205407587 L 256.73828125 220.96560401433518 L 258.88671875 220.39551189304908 L 261.1328125 220.07238612239453 L 263.37890625 220.0074840125181 L 265.625 220.19663946985258 L 267.87109375 220.65208670269544 L 269.921875 221.32605890202208 L 271.875 222.2344107224338 L 273.73046875 223.38734953056797 L 275.48828125 224.80275373966458 L 277.1484375 226.50588796987316 L 278.7109375 228.52941182942118 L 280.17578125 230.91348373646613 L 281.4453125 233.48432645849343 L 282.6171875 236.409793856173 L 283.69140625 239.7101105376572 L 284.66796875 243.39490895857716 L 285.64453125 247.95951113526402 L 286.5234375 253.09449734140622 L 287.3046875 258.7848806164076 L 288.0859375 265.95411375819776 L 288.76953125 273.9371369832388 L 289.453125 284.23073856730883 L 290.0390625 295.74593162632965 L 290.625 311.0185735984992 L 291.2109375 332.22327624552383 L 291.69921875 357.3768898411836 L 292.1875 394.4922106848138 L 292.28230205596816 405.5" stroke-linecap="round" stroke-linejoin="round" stroke-miterlimit="10" stroke-width="2.5" stroke-opacity="0.9" stroke-dasharray=""/></g><g><path fill="none" stroke="#c74440" class="dcg-svg-curve" paint-order="fill stroke markers" d=" M 296.2178148951669 -5.5 L 296.2178148951669 -5.5 L 296.58203125 28.249208527050797 L 297.0703125 57.81179917044079 L 297.65625 82.07529673208498 L 298.2421875 99.1911557726162 L 298.92578125 113.7087310300692 L 299.609375 124.49419147101432 L 300.390625 133.8484076948376 L 301.171875 141.06036134514295 L 302.05078125 147.41370382481364 L 303.02734375 152.94281229598374 L 304.00390625 157.32779956601104 L 305.078125 161.1979567958885 L 306.25 164.5851028684735 L 307.51953125 167.52967710162886 L 308.88671875 170.07417979813417 L 310.3515625 172.2592764453173 L 312.01171875 174.2246659717326 L 313.76953125 175.85450061734574 L 315.625 177.18595829940995 L 317.578125 178.24635665236912 L 319.62890625 179.05366203780295 L 321.77734375 179.6163712824841 L 324.0234375 179.93254894485074 L 326.26953125 179.99082088921574 L 328.515625 179.794926876373 L 330.76171875 179.332189060084 L 332.8125 178.6506275483364 L 334.765625 177.73371182342115 L 336.62109375 176.57081645994197 L 338.37890625 175.14356597625712 L 340.0390625 173.4260812791523 L 341.6015625 171.38492520734866 L 343.06640625 168.97894281272184 L 344.3359375 166.38288131047824 L 345.5078125 163.4265533989939 L 346.58203125 160.08854149889663 L 347.55859375 156.35795645225295 L 348.53515625 151.7311325262425 L 349.4140625 146.51878838697982 L 350.1953125 140.7335020938704 L 350.9765625 133.43087834054273 L 351.66015625 125.2810881179244 L 352.34375 114.74394033862198 L 352.9296875 102.91803694967653 L 353.515625 87.17058694159518 L 354.1015625 65.187198850566 L 354.58984375 38.9280950026623 L 355.078125 -0.1833204145964089 L 355.12103783191674 -5.5" stroke-linecap="round" stroke-linejoin="round" stroke-miterlimit="10" stroke-width="2.5" stroke-opacity="0.9" stroke-dasharray=""/></g><g><path fill="none" stroke="#c74440" class="dcg-svg-curve" paint-order="fill stroke markers" d=" M 359.05450615890555 405.5 L 359.05450615890555 405.5 L 359.375 374.6471975219503 L 359.86328125 344.1612920696502 L 360.44921875 319.2724058257713 L 361.03515625 301.7866880774137 L 361.71875 287.0013662947914 L 362.40234375 276.04417784074843 L 363.18359375 266.55970919199024 L 363.96484375 259.2591346086292 L 364.84375 252.83619498943006 L 365.8203125 247.25293928110332 L 366.796875 242.82922323126542 L 367.87109375 238.92794395689356 L 369.04296875 235.51587102846426 L 370.3125 232.55132730569207 L 371.6796875 229.99077734667037 L 373.14453125 227.79271351686185 L 374.8046875 225.81618756723802 L 376.5625 224.1773397548306 L 378.41796875 222.83845395673066 L 380.37109375 221.7717948242689 L 382.421875 220.95906042110175 L 384.5703125 220.3914695278279 L 386.81640625 220.07069649053568 L 389.0625 220.00803823762774 L 391.30859375 220.19947298838403 L 393.5546875 220.65738492101576 L 395.60546875 221.33392156259896 L 397.55859375 222.24516588921276 L 399.4140625 223.4014662300301 L 400 223.8358701337579" stroke-linecap="round" stroke-linejoin="round" stroke-miterlimit="10" stroke-width="2.5" stroke-opacity="0.9" stroke-dasharray=""/></g></g></g><g id="labels-57833943"/></g></svg>