<svg version="1.1" xmlns="http://www.w3.org/2000/svg" xmlns:xlink="http://www.w3.org/1999/xlink" width="800" height="800"><defs/><g transform="scale(2,2)"><g id="background-ac35bbc7"><rect fill="white" stroke="none" x="0" y="0" width="400" height="400" class="dcg-svg-background"/></g><g id="background-images-ac35bbc7"/><g id="graphpaper-ac35bbc7"><g id="grid-ac35bbc7"><g><path fill="none" stroke="rgb(0,0,0)" class="dcg-svg-minor-gridline" paint-order="fill stroke markers" d=" M 100.5 0 L 100.5 400" stroke-opacity="0.2" stroke-miterlimit="10" stroke-dasharray=""/><path fill="none" stroke="rgb(0,0,0)" class="dcg-svg-minor-gridline" paint-order="fill stroke markers" d=" M 300.5 0 L 300.5 400" stroke-opacity="0.2" stroke-miterlimit="10" stroke-dasharray=""/><path fill="none" stroke="rgb(0,0,0)" class="dcg-svg-minor-gridline" paint-order="fill stroke markers" d=" M 0 300.5 L 400 300.5" stroke-opacity="0.2" stroke-miterlimit="10" stroke-dasharray=""/><path fill="none" stroke="rgb(0,0,0)" class="dcg-svg-minor-gridline" paint-order="fill stroke markers" d=" M 0 100.5 L 400 100.5" stroke-opacity="0.2" stroke-miterlimit="10" stroke-dasharray=""/><path fill="none" stroke="rgb(0,0,0)" class="dcg-svg-major-gridline" paint-order="fill stroke markers" d=" M 100.5 0 L 100.5 400" stroke-opacity="0.2500000000000001" stroke-miterlimit="10" stroke-dasharray=""/><path fill="none" stroke="rgb(0,0,0)" class="dcg-svg-major-gridline" paint-order="fill stroke markers" d=" M 300.5 0 L 300.5 400" stroke-opacity="0.2500000000000001" stroke-miterlimit="10" stroke-dasharray=""/><path fill="none" stroke="rgb(0,0,0)" class="dcg-svg-major-gridline" paint-order="fill stroke markers" d=" M 0 300.5 L 400 300.5" stroke-opacity="0.2500000000000001" stroke-miterlimit="10" stroke-dasharray=""/><path fill="none" stroke="rgb(0,0,0)" class="dcg-svg-major-gridline" paint-order="fill stroke markers" d=" M 0 100.5 L 400 100.5" stroke-opacity="0.2500000000000001" stroke-miterlimit="10" stroke-dasharray=""/></g></g><g id="axis-ac35bbc7"><g id="yaxis-ac35bbc7"><title>Y axis</title><g><path fill="none" stroke="rgb(0,0,0)" class="dcg-svg-axis-line" paint-order="fill stroke markers" d=" M 200 3 L 200 400" stroke-opacity="0.9" stroke-miterlimit="10" stroke-width="1.5" stroke-dasharray=""/><g class="dcg-svg-axis-line"><path fill="rgb(0,0,0)" stroke="rgb(0,0,0)" class="dcg-svg-axis-line" paint-order="stroke fill markers" d=" M 200 1.5 L 203.10582854123024 13.09110991546882 L 196.89417145876976 13.09110991546882 L 200 1.5 L 203.10582854123024 13.09110991546882" stroke-opacity="0.9" stroke-linejoin="round" stroke-miterlimit="10" stroke-width="1.5" stroke-dasharray="" fill-opacity="0.9"/></g></g></g><g id="xaxis-ac35bbc7"><title>X axis</title><g><path fill="none" stroke="rgb(0,0,0)" class="dcg-svg-axis-line" paint-order="fill stroke markers" d=" M 0 200 L 397 200" stroke-opacity="0.9" stroke-miterlimit="10" stroke-width="1.5" stroke-dasharray=""/><g class="dcg-svg-axis-line"><path fill="rgb(0,0,0)" stroke="rgb(0,0,0)" class="dcg-svg-axis-line" paint-order="stroke fill markers" d=" M 398.5 200 L 386.9088900845312 203.10582854123027 L 386.9088900845312 196.89417145876976 L 398.5 200 L 386.9088900845312 203.10582854123027" stroke-opacity="0.9" stroke-linejoin="round" stroke-miterlimit="10" stroke-width="1.5" stroke-dasharray="" fill-opacity="0.9"/></g></g></g><g><g class="dcg-svg-axis-value"><text fill="none" stroke="#ffffff" font-family="Arial" font-size="14px" font-style="normal" font-weight="normal" text-decoration="normal" x="191.10693359375" y="215.808" text-anchor="middle" stroke-miterlimit="2" stroke-width="3" stroke-dasharray="">0</text><text fill="#000000" stroke="none" font-family="Arial" font-size="14px" font-style="normal" font-weight="normal" text-decoration="normal" x="191.10693359375" y="215.808" text-anchor="middle">0</text></g><g class="dcg-svg-axis-value dcg-svg-offcenter-axis-value"><text fill="none" stroke="#ffffff" font-family="Arial" font-size="14px" font-style="normal" font-weight="normal" text-decoration="normal" x="13.1171875" y="215.808" text-anchor="middle" stroke-miterlimit="2" stroke-width="3" stroke-dasharray="">-10</text><text fill="#000000" stroke="none" font-family="Arial" font-size="14px" font-style="normal" font-weight="normal" text-decoration="normal" x="13.1171875" y="215.808" text-anchor="middle">-10</text></g><g class="dcg-svg-axis-value"><text fill="none" stroke="#ffffff" font-family="Arial" font-size="14px" font-style="normal" font-weight="normal" text-decoration="normal" x="97.6689453125" y="215.808" text-anchor="middle" stroke-miterlimit="2" stroke-width="3" stroke-dasharray="">-5</text><text fill="#000000" stroke="none" font-family="Arial" font-size="14px" font-style="normal" font-weight="normal" text-decoration="normal" x="97.6689453125" y="215.808" text-anchor="middle">-5</text></g><g class="dcg-svg-axis-value"><text fill="none" stroke="#ffffff" font-family="Arial" font-size="14px" font-style="normal" font-weight="normal" text-decoration="normal" x="300" y="215.808" text-anchor="middle" stroke-miterlimit="2" stroke-width="3" stroke-dasharray="">5</text><text fill="#000000" stroke="none" font-family="Arial" font-size="14px" font-style="normal" font-weight="normal" text-decoration="normal" x="300" y="215.808" text-anchor="middle">5</text></g><g class="dcg-svg-axis-value dcg-svg-offcenter-axis-value"><text fill="none" stroke="#ffffff" font-family="Arial" font-size="14px" font-style="normal" font-weight="normal" text-decoration="normal" x="389.2138671875" y="215.808" text-anchor="middle" stroke-miterlimit="2" stroke-width="3" stroke-dasharray="">10</text><text fill="#000000" stroke="none" font-family="Arial" font-size="14px" font-style="normal" font-weight="normal" text-decoration="normal" x="389.2138671875" y="215.808" text-anchor="middle">10</text></g><g class="dcg-svg-axis-value dcg-svg-offcenter-axis-value"><text fill="none" stroke="#ffffff" font-family="Arial" font-size="14px" font-style="normal" font-weight="normal" text-decoration="normal" x="184.8828125" y="393.808" text-anchor="middle" stroke-miterlimit="2" stroke-width="3" stroke-dasharray="">-10</text><text fill="#000000" stroke="none" font-family="Arial" font-size="14px" font-style="normal" font-weight="normal" text-decoration="normal" x="184.8828125" y="393.808" text-anchor="middle">-10</text></g><g class="dcg-svg-axis-value"><text fill="none" stroke="#ffffff" font-family="Arial" font-size="14px" font-style="normal" font-weight="normal" text-decoration="normal" x="188.77587890625" y="303.808" text-anchor="middle" stroke-miterlimit="2" stroke-width="3" stroke-dasharray="">-5</text><text fill="#000000" stroke="none" font-family="Arial" font-size="14px" font-style="normal" font-weight="normal" text-decoration="normal" x="188.77587890625" y="303.808" text-anchor="middle">-5</text></g><g class="dcg-svg-axis-value"><text fill="none" stroke="#ffffff" font-family="Arial" font-size="14px" font-style="normal" font-weight="normal" text-decoration="normal" x="191.10693359375" y="103.808" text-anchor="middle" stroke-miterlimit="2" stroke-width="3" stroke-dasharray="">5</text><text fill="#000000" stroke="none" font-family="Arial" font-size="14px" font-style="normal" font-weight="normal" text-decoration="normal" x="191.10693359375" y="103.808" text-anchor="middle">5</text></g><g class="dcg-svg-axis-value dcg-svg-offcenter-axis-value"><text fill="none" stroke="#ffffff" font-family="Arial" font-size="14px" font-style="normal" font-weight="normal" text-decoration="normal" x="187.2138671875" y="13.808" text-anchor="middle" stroke-miterlimit="2" stroke-width="3" stroke-dasharray="">10</text><text fill="#000000" stroke="none" font-family="Arial" font-size="14px" font-style="normal" font-weight="normal" text-decoration="normal" x="187.2138671875" y="13.808" text-anchor="middle">10</text></g></g></g></g><g id="expressions-ac35bbc7"><g id="sketch-ac35bbc7"><title>Expression 1</title><path fill="#c74440" stroke="none" paint-order="stroke fill markers" d="" fill-opacity="0.4"/><g><path fill="none" stroke="#c74440" class="dcg-svg-curve" paint-order="fill stroke markers" d=" M 0 230.84702090713841 L 0 230.84702090713841 L 1.171875 235.2054790974707 L 2.24609375 240.07313255117288 L 3.22265625 245.50609278281271 L 4.1015625 251.54257451022062 L 4.98046875 259.12209957138975 L 5.76171875 267.72853442091923 L 6.4453125 277.37139043053776 L 7.12890625 289.9542153419279 L 7.71484375 304.2858868861594 L 8.30078125 323.7874950373165 L 8.7890625 346.40288497054746 L 9.27734375 378.8630244027904 L 9.54877985651265 405.5" stroke-linecap="round" stroke-linejoin="round" stroke-miterlimit="10" stroke-width="2.5" stroke-opacity="0.9" stroke-dasharray=""/></g><g><path fill="none" stroke="#c74440" class="dcg-svg-curve" paint-order="fill stroke markers" d=" M 13.472081299988748 -5.5 L 13.472081299988748 -5.5 L 13.76953125 24.16228831471051 L 14.2578125 55.642527127028586 L 14.84375 81.32992404256329 L 15.4296875 99.40736528480187 L 16.11328125 114.75202085503037 L 16.89453125 127.59520012789393 L 17.67578125 137.2545505601961 L 18.5546875 145.63418121860033 L 19.43359375 152.22441727564842 L 20.41015625 158.09359186298695 L 21.484375 163.30278500019006 L 22.65625 167.92805339605263 L 23.92578125 172.0483428871766 L 25.29296875 175.73911495601908 L 26.85546875 179.2730790289222 L 28.61328125 182.6223638739475 L 30.6640625 185.93764827651526 L 33.10546875 189.31309219951916 L 36.03515625 192.8292436339347 L 39.84375 196.89888245350897 L 50.78125 208.29235748124694 L 53.61328125 211.84349298208244 L 55.95703125 215.2620211912124 L 57.91015625 218.61286529225768 L 59.5703125 221.97861824182178 L 61.03515625 225.5024055358954 L 62.3046875 229.13501225161326 L 63.4765625 233.1402029919452 L 64.55078125 237.56164446624257 L 65.52734375 242.43335514738737 L 66.50390625 248.43210990912334 L 67.3828125 255.1884187039118 L 68.1640625 262.7357913227098 L 68.9453125 272.3922348670208 L 69.62890625 283.39786491899076 L 70.3125 298.06377307641077 L 70.8984375 315.20335871091044 L 71.38671875 334.62813258932226 L 71.875 361.694888525571 L 72.36328125 402.0775554779924 L 72.38992460556193 405.5" stroke-linecap="round" stroke-linejoin="round" stroke-miterlimit="10" stroke-width="2.5" stroke-opacity="0.9" stroke-dasharray=""/></g><g><path fill="none" stroke="#c74440" class="dcg-svg-curve" paint-order="fill stroke markers" d=" M 76.29729048745745 -5.5 L 76.29729048745745 -5.5 L 76.66015625 28.64808748198871 L 77.1484375 58.698374336197475 L 77.734375 83.42138685324856 L 78.41796875 103.36536536338274 L 79.1015625 117.65376414810179 L 79.8828125 129.74107989833442 L 80.6640625 138.91003147688053 L 81.54296875 146.919179751799 L 82.51953125 153.87827342378694 L 83.49609375 159.42775740651945 L 84.5703125 164.38708187994246 L 85.7421875 168.8174507711847 L 87.01171875 172.78566303409096 L 88.37890625 176.35758084303362 L 89.94140625 179.7932331208648 L 91.69921875 183.06342584345686 L 93.75 186.31400395379097 L 96.19140625 189.63753904948936 L 99.21875 193.22375340160823 L 103.125 197.35756304570154 L 113.0859375 207.68110650185628 L 116.015625 211.27056524819298 L 118.45703125 214.74344097179952 L 120.5078125 218.18052310015418 L 122.16796875 221.4681394917381 L 123.6328125 224.89644090983447 L 125 228.71290727458987 L 126.171875 232.63447847227093 L 127.24609375 236.95131496006974 L 128.22265625 241.6928945671994 L 129.19921875 247.51010045571806 L 130.078125 254.03393406086087 L 130.859375 261.2867748932445 L 131.640625 270.5131998225505 L 132.32421875 280.95661508747435 L 133.0078125 294.7553216517248 L 133.59375 310.7129791611593 L 134.1796875 332.8505893046831 L 134.66796875 359.1543351461413 L 135.15625 398.1462570083246 L 135.21605385768729 405.5" stroke-linecap="round" stroke-linejoin="round" stroke-miterlimit="10" stroke-width="2.5" stroke-opacity="0.9" stroke-dasharray=""/></g><g><path fill="none" stroke="#c74440" class="dcg-svg-curve" paint-order="fill stroke markers" d=" M 139.13393613978747 -5.5 L 139.13393613978747 -5.5 L 139.453125 25.705938429465903 L 139.94140625 56.69098849625453 L 140.52734375 82.04576069959617 L 141.11328125 99.92775108773702 L 141.796875 115.1316186077103 L 142.578125 127.87473124997919 L 143.359375 137.4695109776597 L 144.23828125 145.8005707509132 L 145.1171875 152.35747283924638 L 146.09375 158.2005705127468 L 147.16796875 163.3894703558157 L 148.33984375 167.9989694092643 L 149.609375 172.1069942288039 L 150.9765625 175.7882075044772 L 152.5390625 179.31428373700203 L 154.296875 182.6572356223905 L 156.34765625 185.96734705062246 L 158.7890625 189.33864464598463 L 161.71875 192.85167978795204 L 165.52734375 196.919245071327 L 176.3671875 208.20136602616827 L 179.19921875 211.73869393021485 L 181.54296875 215.13932950072365 L 183.49609375 218.46826401473083 L 185.15625 221.8076620164987 L 186.62109375 225.29919691645807 L 187.98828125 229.19719388659547 L 189.16015625 233.21481862257727 L 190.234375 237.6518479828536 L 191.2109375 242.54299765223723 L 192.1875 248.5689514426424 L 193.06640625 255.36021001525359 L 193.84765625 262.95203658902415 L 194.62890625 272.6736948657075 L 195.3125 283.765081186709 L 195.8984375 296.15277328112404 L 196.484375 312.60348166384233 L 197.0703125 335.55537098847304 L 197.55859375 363.0253883279157 L 198.046875 404.1485440358816 L 198.05715959503868 405.5" stroke-linecap="round" stroke-linejoin="round" stroke-miterlimit="10" stroke-width="2.5" stroke-opacity="0.9" stroke-dasharray=""/></g><g><path fill="none" stroke="#c74440" class="dcg-svg-curve" paint-order="fill stroke markers" d=" M 201.96902966725452 -5.5 L 201.96902966725452 -5.5 L 202.24609375 22.662371674369552 L 202.734375 54.626881872966976 L 203.3203125 80.6382215453057 L 203.90625 98.90540677891039 L 204.58984375 114.38641065034 L 205.37109375 127.32630513429248 L 206.15234375 137.04796341097588 L 207.03125 145.4744031828533 L 207.91015625 152.096730500626 L 208.88671875 157.99098835029469 L 209.9609375 163.21968692801696 L 211.1328125 167.86010264367292 L 212.40234375 171.9921664788631 L 213.76953125 175.6921108511352 L 215.33203125 179.23364075847795 L 217.08984375 182.58899793524614 L 219.140625 185.90924109232213 L 221.58203125 189.28865903888652 L 224.51171875 192.80779759286344 L 228.3203125 196.87942614158396 L 239.2578125 208.27010383607555 L 242.08984375 211.81784908920105 L 244.43359375 215.23198400975323 L 246.38671875 218.57744687857726 L 248.046875 221.93672387615504 L 249.51171875 225.45258178766855 L 250.78125 229.07578411658653 L 251.953125 233.06915911867918 L 253.02734375 237.47579578943726 L 254.00390625 242.32905536751434 L 254.98046875 248.30201236674807 L 255.859375 255.02520106863562 L 256.640625 262.5304890223403 L 257.421875 272.12526875002084 L 258.10546875 283.0499310941593 L 258.7890625 297.59027644418626 L 259.375 314.55759274844445 L 259.86328125 333.7539488692165 L 260.3515625 360.4438145912835 L 260.83984375 400.1378305126451 L 260.88249312373966 405.5" stroke-linecap="round" stroke-linejoin="round" stroke-miterlimit="10" stroke-width="2.5" stroke-opacity="0.9" stroke-dasharray=""/></g><g><path fill="none" stroke="#c74440" class="dcg-svg-curve" paint-order="fill stroke markers" d=" M 264.79538496369173 -5.5 L 264.79538496369173 -5.5 L 265.13671875 27.223064676267057 L 265.625 57.72461460619877 L 266.2109375 82.75325016006009 L 266.89453125 102.9007458884389 L 267.578125 117.31139119792564 L 268.359375 129.48680017744948 L 269.140625 138.7132251067555 L 270.01953125 146.7659851980944 L 270.8984375 153.13119893937323 L 271.875 158.82389445858482 L 272.94921875 163.89544572571222 L 274.12109375 168.41355104663594 L 275.390625 172.45035623833215 L 276.7578125 176.07597099810005 L 278.3203125 179.556102638406 L 280.078125 182.86212226418627 L 282.12890625 186.14203803107097 L 284.5703125 189.48912021228654 L 287.5 192.98396307433794 L 291.30859375 197.03947050757517 L 301.953125 208.11066428648752 L 304.78515625 211.6343721479811 L 307.2265625 215.1706362459869 L 309.1796875 218.50514349859472 L 310.83984375 221.851241966493 L 312.3046875 225.35097229025968 L 313.57421875 228.95505873768406 L 314.74609375 232.92443311232213 L 315.8203125 237.30102167619978 L 316.796875 242.11686654696808 L 317.7734375 248.0375683911494 L 318.65234375 254.69375701298452 L 319.43359375 262.11403536909216 L 320.21484375 271.58447951985255 L 320.8984375 282.3462358518982 L 321.58203125 296.63463463661725 L 322.16796875 313.2574451783566 L 322.75390625 336.4951927793615 L 323.2421875 364.3776330207042 L 323.6328125 396.2802002137913 L 323.7093823314005 405.5" stroke-linecap="round" stroke-linejoin="round" stroke-miterlimit="10" stroke-width="2.5" stroke-opacity="0.9" stroke-dasharray=""/></g><g><path fill="none" stroke="#c74440" class="dcg-svg-curve" paint-order="fill stroke markers" d=" M 327.6312724152534 -5.5 L 327.6312724152534 -5.5 L 327.9296875 24.232015326388876 L 328.41796875 55.689816186917255 L 329.00390625 81.3621715360276 L 329.58984375 99.43078797238398 L 330.2734375 114.76909425243221 L 331.0546875 127.60776513297917 L 331.8359375 137.2642086772902 L 332.71484375 145.6416540926287 L 333.59375 152.23039119193461 L 334.5703125 158.09839364491484 L 335.64453125 163.30667494852264 L 336.81640625 167.93123500780314 L 338.0859375 172.0509737364677 L 339.453125 175.74131665314786 L 341.015625 179.2749266633064 L 342.7734375 182.62392728761805 L 344.82421875 185.9389795595013 L 347.265625 189.31423743493647 L 350.1953125 192.83024903237583 L 354.00390625 196.89979475732062 L 364.94140625 208.29340154282815 L 367.7734375 211.84469631432592 L 370.1171875 215.26343091668753 L 372.0703125 218.61452785013967 L 373.73046875 221.98058511290827 L 375.1953125 225.50474508777322 L 376.46484375 229.1377939028819 L 377.63671875 233.14354023329835 L 378.7109375 237.56567803913504 L 379.6875 242.43825682449375 L 380.6640625 248.43822579909084 L 381.54296875 255.19609414244087 L 382.32421875 262.7454494398039 L 383.10546875 272.4047998721061 L 383.7890625 283.4142496751192 L 384.47265625 298.08608698278056 L 385.05859375 315.2338167664899 L 385.546875 334.66940376254786 L 386.03515625 361.7540321082236 L 386.5234375 402.1694373134088 L 386.5493393353925 405.5" stroke-linecap="round" stroke-linejoin="round" stroke-miterlimit="10" stroke-width="2.5" stroke-opacity="0.9" stroke-dasharray=""/></g><g><path fill="none" stroke="#c74440" class="dcg-svg-curve" paint-order="fill stroke markers" d=" M 390.45642785928845 -5.5 L 390.45642785928845 -5.5 L 390.8203125 28.714347778083436 L 391.30859375 58.74372011451743 L 391.89453125 83.45253895446227 L 392.578125 103.387050000792 L 393.26171875 117.66975471940611 L 394.04296875 129.75296322850207 L 394.82421875 138.91923309407696 L 395.703125 146.92634517298595 L 396.6796875 153.88390152554973 L 397.65625 159.432314140352 L 398.73046875 164.39079722429065 L 399.90234375 168.82050709771903 L 400 169.15297909286159" stroke-linecap="round" stroke-linejoin="round" stroke-miterlimit="10" stroke-width="2.5" stroke-opacity="0.9" stroke-dasharray=""/></g></g></g><g id="labels-ac35bbc7"/></g></svg>