<svg version="1.1" xmlns="http://www.w3.org/2000/svg" xmlns:xlink="http://www.w3.org/1999/xlink" width="800" height="800"><defs/><g transform="scale(2,2)"><g id="background-c8c6f1ab"><rect fill="white" stroke="none" x="0" y="0" width="400" height="400" class="dcg-svg-background"/></g><g id="background-images-c8c6f1ab"/><g id="graphpaper-c8c6f1ab"><g id="grid-c8c6f1ab"><g><path fill="none" stroke="rgb(0,0,0)" class="dcg-svg-minor-gridline" paint-order="fill stroke markers" d=" M 100.5 0 L 100.5 400" stroke-opacity="0.2" stroke-miterlimit="10" stroke-dasharray=""/><path fill="none" stroke="rgb(0,0,0)" class="dcg-svg-minor-gridline" paint-order="fill stroke markers" d=" M 300.5 0 L 300.5 400" stroke-opacity="0.2" stroke-miterlimit="10" stroke-dasharray=""/><path fill="none" stroke="rgb(0,0,0)" class="dcg-svg-minor-gridline" paint-order="fill stroke markers" d=" M 0 300.5 L 400 300.5" stroke-opacity="0.2" stroke-miterlimit="10" stroke-dasharray=""/><path fill="none" stroke="rgb(0,0,0)" class="dcg-svg-minor-gridline" paint-order="fill stroke markers" d=" M 0 100.5 L 400 100.5" stroke-opacity="0.2" stroke-miterlimit="10" stroke-dasharray=""/><path fill="none" stroke="rgb(0,0,0)" class="dcg-svg-major-gridline" paint-order="fill stroke markers" d=" M 100.5 0 L 100.5 400" stroke-opacity="0.2500000000000001" stroke-miterlimit="10" stroke-dasharray=""/><path fill="none" stroke="rgb(0,0,0)" class="dcg-svg-major-gridline" paint-order="fill stroke markers" d=" M 300.5 0 L 300.5 400" stroke-opacity="0.2500000000000001" stroke-miterlimit="10" stroke-dasharray=""/><path fill="none" stroke="rgb(0,0,0)" class="dcg-svg-major-gridline" paint-order="fill stroke markers" d=" M 0 300.5 L 400 300.5" stroke-opacity="0.2500000000000001" stroke-miterlimit="10" stroke-dasharray=""/><path fill="none" stroke="rgb(0,0,0)" class="dcg-svg-major-gridline" paint-order="fill stroke markers" d=" M 0 100.5 L 400 100.5" stroke-opacity="0.2500000000000001" stroke-miterlimit="10" stroke-dasharray=""/></g></g><g id="axis-c8c6f1ab"><g id="yaxis-c8c6f1ab"><title>Y axis</title><g><path fill="none" stroke="rgb(0,0,0)" class="dcg-svg-axis-line" paint-order="fill stroke markers" d=" M 200 3 L 200 400" stroke-opacity="0.9" stroke-miterlimit="10" stroke-width="1.5" stroke-dasharray=""/><g class="dcg-svg-axis-line"><path fill="rgb(0,0,0)" stroke="rgb(0,0,0)" class="dcg-svg-axis-line" paint-order="stroke fill markers" d=" M 200 1.5 L 203.10582854123024 13.09110991546882 L 196.89417145876976 13.09110991546882 L 200 1.5 L 203.10582854123024 13.09110991546882" stroke-opacity="0.9" stroke-linejoin="round" stroke-miterlimit="10" stroke-width="1.5" stroke-dasharray="" fill-opacity="0.9"/></g></g></g><g id="xaxis-c8c6f1ab"><title>X axis</title><g><path fill="none" stroke="rgb(0,0,0)" class="dcg-svg-axis-line" paint-order="fill stroke markers" d=" M 0 200 L 397 200" stroke-opacity="0.9" stroke-miterlimit="10" stroke-width="1.5" stroke-dasharray=""/><g class="dcg-svg-axis-line"><path fill="rgb(0,0,0)" stroke="rgb(0,0,0)" class="dcg-svg-axis-line" paint-order="stroke fill markers" d=" M 398.5 200 L 386.9088900845312 203.10582854123027 L 386.9088900845312 196.89417145876976 L 398.5 200 L 386.9088900845312 203.10582854123027" stroke-opacity="0.9" stroke-linejoin="round" stroke-miterlimit="10" stroke-width="1.5" stroke-dasharray="" fill-opacity="0.9"/></g></g></g><g><g class="dcg-svg-axis-value"><text fill="none" stroke="#ffffff" font-family="Arial" font-size="14px" font-style="normal" font-weight="normal" text-decoration="normal" x="191.10693359375" y="215.808" text-anchor="middle" stroke-miterlimit="2" stroke-width="3" stroke-dasharray="">0</text><text fill="#000000" stroke="none" font-family="Arial" font-size="14px" font-style="normal" font-weight="normal" text-decoration="normal" x="191.10693359375" y="215.808" text-anchor="middle">0</text></g><g class="dcg-svg-axis-value dcg-svg-offcenter-axis-value"><text fill="none" stroke="#ffffff" font-family="Arial" font-size="14px" font-style="normal" font-weight="normal" text-decoration="normal" x="13.1171875" y="215.808" text-anchor="middle" stroke-miterlimit="2" stroke-width="3" stroke-dasharray="">-10</text><text fill="#000000" stroke="none" font-family="Arial" font-size="14px" font-style="normal" font-weight="normal" text-decoration="normal" x="13.1171875" y="215.808" text-anchor="middle">-10</text></g><g class="dcg-svg-axis-value"><text fill="none" stroke="#ffffff" font-family="Arial" font-size="14px" font-style="normal" font-weight="normal" text-decoration="normal" x="97.6689453125" y="215.808" text-anchor="middle" stroke-miterlimit="2" stroke-width="3" stroke-dasharray="">-5</text><text fill="#000000" stroke="none" font-family="Arial" font-size="14px" font-style="normal" font-weight="normal" text-decoration="normal" x="97.6689453125" y="215.808" text-anchor="middle">-5</text></g><g class="dcg-svg-axis-value"><text fill="none" stroke="#ffffff" font-family="Arial" font-size="14px" font-style="normal" font-weight="normal" text-decoration="normal" x="300" y="215.808" text-anchor="middle" stroke-miterlimit="2" stroke-width="3" stroke-dasharray="">5</text><text fill="#000000" stroke="none" font-family="Arial" font-size="14px" font-style="normal" font-weight="normal" text-decoration="normal" x="300" y="215.808" text-anchor="middle">5</text></g><g class="dcg-svg-axis-value dcg-svg-offcenter-axis-value"><text fill="none" stroke="#ffffff" font-family="Arial" font-size="14px" font-style="normal" font-weight="normal" text-decoration="normal" x="389.2138671875" y="215.808" text-anchor="middle" stroke-miterlimit="2" stroke-width="3" stroke-dasharray="">10</text><text fill="#000000" stroke="none" font-family="Arial" font-size="14px" font-style="normal" font-weight="normal" text-decoration="normal" x="389.2138671875" y="215.808" text-anchor="middle">10</text></g><g class="dcg-svg-axis-value dcg-svg-offcenter-axis-value"><text fill="none" stroke="#ffffff" font-family="Arial" font-size="14px" font-style="normal" font-weight="normal" text-decoration="normal" x="184.8828125" y="393.808" text-anchor="middle" stroke-miterlimit="2" stroke-width="3" stroke-dasharray="">-10</text><text fill="#000000" stroke="none" font-family="Arial" font-size="14px" font-style="normal" font-weight="normal" text-decoration="normal" x="184.8828125" y="393.808" text-anchor="middle">-10</text></g><g class="dcg-svg-axis-value"><text fill="none" stroke="#ffffff" font-family="Arial" font-size="14px" font-style="normal" font-weight="normal" text-decoration="normal" x="188.77587890625" y="303.808" text-anchor="middle" stroke-miterlimit="2" stroke-width="3" stroke-dasharray="">-5</text><text fill="#000000" stroke="none" font-family="Arial" font-size="14px" font-style="normal" font-weight="normal" text-decoration="normal" x="188.77587890625" y="303.808" text-anchor="middle">-5</text></g><g class="dcg-svg-axis-value"><text fill="none" stroke="#ffffff" font-family="Arial" font-size="14px" font-style="normal" font-weight="normal" text-decoration="normal" x="191.10693359375" y="103.808" text-anchor="middle" stroke-miterlimit="2" stroke-width="3" stroke-dasharray="">5</text><text fill="#000000" stroke="none" font-family="Arial" font-size="14px" font-style="normal" font-weight="normal" text-decoration="normal" x="191.10693359375" y="103.808" text-anchor="middle">5</text></g><g class="dcg-svg-axis-value dcg-svg-offcenter-axis-value"><text fill="none" stroke="#ffffff" font-family="Arial" font-size="14px" font-style="normal" font-weight="normal" text-decoration="normal" x="187.2138671875" y="13.808" text-anchor="middle" stroke-miterlimit="2" stroke-width="3" stroke-dasharray="">10</text><text fill="#000000" stroke="none" font-family="Arial" font-size="14px" font-style="normal" font-weight="normal" text-decoration="normal" x="187.2138671875" y="13.808" text-anchor="middle">10</text></g></g></g></g><g id="expressions-c8c6f1ab"><g id="sketch-c8c6f1ab"><title>Expression 1</title><path fill="#c74440" stroke="none" paint-order="stroke fill markers" d="" fill-opacity="0.4"/><g><path fill="none" stroke="#c74440" class="dcg-svg-curve" paint-order="fill stroke markers" d=" M 0 163.23672078220667 L 0 163.23672078220667 L 1.07421875 159.85474911197136 L 2.05078125 156.0706717818335 L 3.02734375 151.37100186587855 L 3.90625 146.06787048285625 L 4.6875 140.17090586336198 L 5.46875 132.710812041775 L 6.15234375 124.36341402031456 L 6.8359375 113.5363761919202 L 7.421875 101.33864937297146 L 8.0078125 85.01922643811162 L 8.49609375 66.53389883116114 L 8.984375 40.85319455968627 L 9.47265625 2.7896919084764704 L 9.541857263653972 -5.5" stroke-linecap="round" stroke-linejoin="round" stroke-miterlimit="10" stroke-width="2.5" stroke-opacity="0.9" stroke-dasharray=""/></g><g><path fill="none" stroke="#c74440" class="dcg-svg-curve" paint-order="fill stroke markers" d=" M 13.48200514233096 405.5 L 13.48200514233096 405.5 L 13.76953125 376.9714690302337 L 14.2578125 345.7363371787238 L 14.84375 320.34362022036646 L 15.4296875 302.56158227594426 L 16.11328125 287.5626515604751 L 16.796875 276.46892055739335 L 17.578125 266.8811648006595 L 18.359375 259.51047186418106 L 19.23828125 253.03256614726845 L 20.21484375 247.4066150529623 L 21.19140625 242.95240261896038 L 22.265625 239.026644831209 L 23.4375 235.59498624979602 L 24.70703125 232.61476647226883 L 26.07421875 230.04162990043753 L 27.5390625 227.83340304514263 L 29.19921875 225.84815526786227 L 30.95703125 224.2022535442168 L 32.8125 222.85755838638607 L 34.765625 221.78600632884084 L 36.81640625 220.9690322469537 L 38.96484375 220.39763227579857 L 41.2109375 220.0732767891824 L 43.45703125 220.00720236508567 L 45.703125 220.19516750093865 L 47.94921875 220.64932812158224 L 50 221.32196214840954 L 51.953125 222.22880511502385 L 53.80859375 223.3799909524254 L 55.56640625 224.79331090576403 L 57.2265625 226.49392199931873 L 58.7890625 228.51434788404958 L 60.25390625 230.89457298780493 L 61.5234375 233.4609915115036 L 62.6953125 236.3810494052364 L 63.76953125 239.6747644629669 L 64.74609375 243.35155207383343 L 65.72265625 247.90528037774038 L 66.6015625 253.0267653828973 L 67.3828125 258.70060952867766 L 68.1640625 265.8466363065463 L 68.84765625 273.8007052005474 L 69.53125 284.0521249268376 L 70.21484375 297.7435458967134 L 70.80078125 313.72917407027325 L 71.38671875 336.1055990196147 L 71.875 362.92709098028126 L 72.36328125 403.0648626128142 L 72.38231275389818 405.5" stroke-linecap="round" stroke-linejoin="round" stroke-miterlimit="10" stroke-width="2.5" stroke-opacity="0.9" stroke-dasharray=""/></g><g><path fill="none" stroke="#c74440" class="dcg-svg-curve" paint-order="fill stroke markers" d=" M 76.3077740139372 -5.5 L 76.3077740139372 -5.5 L 76.66015625 27.484847263841232 L 77.1484375 57.28998137750324 L 77.734375 81.71824720938599 L 78.3203125 98.93177342163648 L 79.00390625 113.52017397927027 L 79.6875 124.35112373423902 L 80.46875 133.73988086421738 L 81.25 140.97535688439962 L 82.12890625 147.3471861713246 L 83.10546875 152.89068708118435 L 84.08203125 157.28597429253497 L 85.15625 161.16441235263258 L 86.328125 164.55819367113452 L 87.59765625 167.50808557566668 L 88.96484375 170.05686296119876 L 90.4296875 172.24541490512195 L 92.08984375 174.21377278419413 L 93.84765625 175.8460105451586 L 95.703125 177.179449301759 L 97.65625 178.24151789196642 L 99.70703125 179.05027207096936 L 101.85546875 179.61428448115436 L 104.1015625 179.93168934701606 L 106.34765625 179.99113312883134 L 108.59375 179.79643092072402 L 110.83984375 179.33498339809773 L 112.890625 178.65476586109324 L 114.84375 177.73936751457407 L 116.69921875 176.5782371621849 L 118.45703125 175.15308768299496 L 120.1171875 173.438149328276 L 121.6796875 171.4001234385288 L 123.14453125 168.9980327539798 L 124.4140625 166.40645300701607 L 125.5859375 163.4556126135647 L 126.66015625 160.12430775876587 L 127.63671875 156.40187503783898 L 128.61328125 151.78613854912007 L 129.4921875 146.5875917306095 L 130.2734375 140.8192493206166 L 131.0546875 133.5404697206917 L 131.73828125 125.42053189978238 L 132.421875 114.92705467880819 L 133.0078125 103.15697763224328 L 133.59375 87.4950500878326 L 134.1796875 65.65239459297541 L 134.66796875 39.59394526449361 L 135.15625 0.846945375148664 L 135.20807731681884 -5.5" stroke-linecap="round" stroke-linejoin="round" stroke-miterlimit="10" stroke-width="2.5" stroke-opacity="0.9" stroke-dasharray=""/></g><g><path fill="none" stroke="#c74440" class="dcg-svg-curve" paint-order="fill stroke markers" d=" M 139.14404995367573 405.5 L 139.14404995367573 405.5 L 139.453125 375.43779495522944 L 139.94140625 344.69786722056637 L 140.52734375 319.63779740925077 L 141.11328125 302.0512371427114 L 141.796875 287.1931313817043 L 142.48046875 276.1893723018716 L 143.26171875 266.66964795680093 L 144.04296875 259.3451239532566 L 144.921875 252.9034003453417 L 145.8984375 247.30554721003318 L 146.875 242.87140043458066 L 147.94921875 238.96174596118104 L 149.12109375 235.54296990999714 L 150.390625 232.57305968081096 L 151.7578125 230.0081998114762 L 153.22265625 227.80665519228583 L 154.8828125 225.82714143081046 L 156.640625 224.18587668410777 L 158.49609375 222.84499998167257 L 160.44921875 221.77666366887752 L 162.5 220.96247568667968 L 164.6484375 220.39357853643185 L 166.89453125 220.07157663974638 L 169.140625 220.0077462396529 L 171.38671875 220.19799017294292 L 173.6328125 220.65461425474837 L 175.68359375 221.32981076912887 L 177.63671875 222.23954336910106 L 179.4921875 223.39408668146686 L 181.25 224.81139899575942 L 182.91015625 226.51684356967968 L 184.47265625 228.54320470016393 L 185.9375 230.9308004420166 L 187.20703125 233.50569681944017 L 188.37890625 236.4361218194315 L 189.453125 239.74249018944118 L 190.4296875 243.4346341597494 L 191.40625 248.00921043850684 L 192.28515625 253.15658535392822 L 193.06640625 258.86215127680083 L 193.84765625 266.05269798203426 L 194.53125 274.06232923737514 L 195.21484375 284.3947213942557 L 195.80078125 295.95930004305075 L 196.38671875 311.30721735733437 L 196.97265625 332.6349415325277 L 197.4609375 357.96243568794006 L 197.94921875 395.3898356577236 L 198.03539446955944 405.5" stroke-linecap="round" stroke-linejoin="round" stroke-miterlimit="10" stroke-width="2.5" stroke-opacity="0.9" stroke-dasharray=""/></g><g><path fill="none" stroke="#c74440" class="dcg-svg-curve" paint-order="fill stroke markers" d=" M 201.9787716500618 -5.5 L 201.9787716500618 -5.5 L 202.24609375 21.538142954413217 L 202.734375 53.25756076043885 L 203.3203125 78.97424176702083 L 203.90625 96.94604918520797 L 204.58984375 112.08136328779764 L 205.2734375 123.2620604560057 L 206.0546875 132.91547429810743 L 206.8359375 140.3306692576296 L 207.71484375 146.84341464607178 L 208.69140625 152.4963965152108 L 209.66796875 156.9698976389053 L 210.7421875 160.91112516067437 L 211.9140625 164.3551522193728 L 213.18359375 167.3452650007789 L 214.55078125 169.92634012802142 L 216.015625 172.14097346234385 L 217.67578125 174.13171637633627 L 219.43359375 175.7820601183619 L 221.2890625 177.13041175099843 L 223.2421875 178.20504190625752 L 225.29296875 179.02468169793562 L 227.44140625 179.59847523090863 L 229.6875 179.92508041523618 L 231.93359375 179.9932986457481 L 234.1796875 179.80750934714212 L 236.42578125 179.35569962933843 L 238.57421875 178.64683765374505 L 240.52734375 177.72853333938716 L 242.3828125 176.56402244085461 L 244.140625 175.13484850623527 L 245.80078125 173.4150322004942 L 247.36328125 171.37100933852398 L 248.828125 168.96146194061345 L 250.09765625 166.36129400352286 L 251.26953125 163.39993693032446 L 252.34375 160.055776610731 L 253.3203125 156.317716117604 L 254.296875 151.68072197447322 L 255.17578125 146.45571706445014 L 255.95703125 140.6548760467434 L 256.73828125 133.33035204319907 L 257.421875 125.1531270375126 L 258.10546875 114.57581692082385 L 258.69140625 102.69852861656126 L 259.27734375 86.87227814699546 L 259.86328125 64.75903417193078 L 260.3515625 38.314448262678184 L 260.83984375 -1.1346593760216876 L 260.8747035069326 -5.5" stroke-linecap="round" stroke-linejoin="round" stroke-miterlimit="10" stroke-width="2.5" stroke-opacity="0.9" stroke-dasharray=""/></g><g><path fill="none" stroke="#c74440" class="dcg-svg-curve" paint-order="fill stroke markers" d=" M 264.80568819553156 405.5 L 264.80568819553156 405.5 L 265.13671875 373.930645315486 L 265.625 343.67423321164677 L 266.2109375 318.9403226329467 L 266.796875 301.54604571446635 L 267.48046875 286.8268023887484 L 268.1640625 275.91193528452874 L 268.9453125 266.4595302793083 L 269.7265625 259.18075067938344 L 270.60546875 252.77491426223042 L 271.58203125 247.20495596714625 L 272.55859375 242.79074542406468 L 273.6328125 238.89710097563224 L 274.8046875 235.49114041751838 L 276.07421875 232.53149154573074 L 277.44140625 229.9748736472667 L 278.90625 227.7799861416142 L 280.56640625 225.80618722957092 L 282.32421875 224.16954585486135 L 284.1796875 222.83247793324185 L 286.1328125 221.76735053260734 L 288.18359375 220.95594393990726 L 290.33203125 220.38954656500854 L 292.578125 220.069896621557 L 294.82421875 220.0083099283877 L 297.0703125 220.20083361132313 L 299.31640625 220.65992352866002 L 301.3671875 221.33768627644096 L 303.3203125 222.25031401459722 L 305.17578125 223.40822257713984 L 306.93359375 224.82953806672217 L 308.59375 226.53983110128956 L 310.15625 228.57214826277732 L 311.62109375 230.96714361373503 L 312.890625 233.55055496248195 L 314.0625 236.49139735706737 L 315.13671875 239.81048696160812 L 316.11328125 243.5180784192705 L 317.08984375 248.11364010816206 L 317.96875 253.28709535388936 L 318.75 259.0246431156004 L 319.53125 266.2601191357826 L 320.21484375 274.3258885458371 L 320.8984375 284.7402062717365 L 321.484375 296.40921484456044 L 322.0703125 311.9165480449976 L 322.65625 333.505338908911 L 323.14453125 359.20278863016006 L 323.6328125 397.2965204862113 L 323.70122654676305 405.5" stroke-linecap="round" stroke-linejoin="round" stroke-miterlimit="10" stroke-width="2.5" stroke-opacity="0.9" stroke-dasharray=""/></g><g><path fill="none" stroke="#c74440" class="dcg-svg-curve" paint-order="fill stroke markers" d=" M 327.641204777649 -5.5 L 327.641204777649 -5.5 L 327.9296875 23.09781110392447 L 328.41796875 54.310504317690345 L 329.00390625 79.68817870779725 L 329.58984375 97.46139064793404 L 330.2734375 112.45397042383485 L 330.95703125 123.54364766902451 L 331.73828125 133.12834049596378 L 332.51953125 140.49695607938008 L 333.3984375 146.9732346171027 L 334.375 152.59792265375722 L 335.3515625 157.051233435911 L 336.42578125 160.9762678487946 L 337.59765625 164.407347899772 L 338.8671875 167.3871048124322 L 340.234375 169.9598698727958 L 341.69921875 172.1677968493438 L 343.359375 174.15278735261916 L 345.1171875 175.79848106496357 L 346.97265625 177.14300496259344 L 348.92578125 178.21441282012174 L 350.9765625 179.03126199401854 L 353.125 179.60254978270615 L 355.37109375 179.92679980202962 L 357.6171875 179.9927736952326 L 359.86328125 179.80470649791516 L 362.109375 179.35043557395127 L 364.16015625 178.67768683708854 L 366.11328125 177.7707145430695 L 367.96875 176.6193784691378 L 369.7265625 175.2058799035507 L 371.38671875 173.50505260753505 L 372.94921875 171.48436128905203 L 374.4140625 169.10380662566553 L 375.68359375 166.53700911658544 L 376.85546875 163.61648788624433 L 377.9296875 160.322207453398 L 378.90625 156.644733874152 L 379.8828125 152.09007458183746 L 380.76171875 146.96743385273155 L 381.54296875 141.29217421347306 L 382.32421875 134.14416179712697 L 383.0078125 126.18761612423333 L 383.69140625 115.93258931871043 L 384.375 102.23562128696885 L 384.9609375 86.2424600023766 L 385.546875 63.853577682848595 L 386.03515625 37.01421257278835 L 386.5234375 -3.15629791768788 L 386.5417358000683 -5.5" stroke-linecap="round" stroke-linejoin="round" stroke-miterlimit="10" stroke-width="2.5" stroke-opacity="0.9" stroke-dasharray=""/></g><g><path fill="none" stroke="#c74440" class="dcg-svg-curve" paint-order="fill stroke markers" d=" M 390.4669198237666 405.5 L 390.4669198237666 405.5 L 390.8203125 372.44933939301524 L 391.30859375 342.66512049932106 L 391.89453125 318.2510493660041 L 392.48046875 301.0459308382615 L 393.1640625 286.4636238080798 L 393.84765625 275.63658597968544 L 394.62890625 266.25079816722706 L 395.41015625 259.0173436426029 L 396.2890625 252.6471027042778 L 397.265625 247.10483809210712 L 398.2421875 242.7104354725977 L 399.31640625 238.83270848540303 L 400 236.76327921779333" stroke-linecap="round" stroke-linejoin="round" stroke-miterlimit="10" stroke-width="2.5" stroke-opacity="0.9" stroke-dasharray=""/></g></g></g><g id="labels-c8c6f1ab"/></g></svg>