<svg version="1.1" xmlns="http://www.w3.org/2000/svg" xmlns:xlink="http://www.w3.org/1999/xlink" width="800" height="800"><defs/><g transform="scale(2,2)"><g id="background-c986ca68"><rect fill="white" stroke="none" x="0" y="0" width="400" height="400" class="dcg-svg-background"/></g><g id="background-images-c986ca68"/><g id="graphpaper-c986ca68"><g id="grid-c986ca68"><g><path fill="none" stroke="rgb(0,0,0)" class="dcg-svg-minor-gridline" paint-order="fill stroke markers" d=" M 100.5 0 L 100.5 400" stroke-opacity="0.2" stroke-miterlimit="10" stroke-dasharray=""/><path fill="none" stroke="rgb(0,0,0)" class="dcg-svg-minor-gridline" paint-order="fill stroke markers" d=" M 300.5 0 L 300.5 400" stroke-opacity="0.2" stroke-miterlimit="10" stroke-dasharray=""/><path fill="none" stroke="rgb(0,0,0)" class="dcg-svg-minor-gridline" paint-order="fill stroke markers" d=" M 0 300.5 L 400 300.5" stroke-opacity="0.2" stroke-miterlimit="10" stroke-dasharray=""/><path fill="none" stroke="rgb(0,0,0)" class="dcg-svg-minor-gridline" paint-order="fill stroke markers" d=" M 0 100.5 L 400 100.5" stroke-opacity="0.2" stroke-miterlimit="10" stroke-dasharray=""/><path fill="none" stroke="rgb(0,0,0)" class="dcg-svg-major-gridline" paint-order="fill stroke markers" d=" M 100.5 0 L 100.5 400" stroke-opacity="0.2500000000000001" stroke-miterlimit="10" stroke-dasharray=""/><path fill="none" stroke="rgb(0,0,0)" class="dcg-svg-major-gridline" paint-order="fill stroke markers" d=" M 300.5 0 L 300.5 400" stroke-opacity="0.2500000000000001" stroke-miterlimit="10" stroke-dasharray=""/><path fill="none" stroke="rgb(0,0,0)" class="dcg-svg-major-gridline" paint-order="fill stroke markers" d=" M 0 300.5 L 400 300.5" stroke-opacity="0.2500000000000001" stroke-miterlimit="10" stroke-dasharray=""/><path fill="none" stroke="rgb(0,0,0)" class="dcg-svg-major-gridline" paint-order="fill stroke markers" d=" M 0 100.5 L 400 100.5" stroke-opacity="0.2500000000000001" stroke-miterlimit="10" stroke-dasharray=""/></g></g><g id="axis-c986ca68"><g id="yaxis-c986ca68"><title>Y axis</title><g><path fill="none" stroke="rgb(0,0,0)" class="dcg-svg-axis-line" paint-order="fill stroke markers" d=" M 200 3 L 200 400" stroke-opacity="0.9" stroke-miterlimit="10" stroke-width="1.5" stroke-dasharray=""/><g class="dcg-svg-axis-line"><path fill="rgb(0,0,0)" stroke="rgb(0,0,0)" class="dcg-svg-axis-line" paint-order="stroke fill markers" d=" M 200 1.5 L 203.10582854123024 13.09110991546882 L 196.89417145876976 13.09110991546882 L 200 1.5 L 203.10582854123024 13.09110991546882" stroke-opacity="0.9" stroke-linejoin="round" stroke-miterlimit="10" stroke-width="1.5" stroke-dasharray="" fill-opacity="0.9"/></g></g></g><g id="xaxis-c986ca68"><title>X axis</title><g><path fill="none" stroke="rgb(0,0,0)" class="dcg-svg-axis-line" paint-order="fill stroke markers" d=" M 0 200 L 397 200" stroke-opacity="0.9" stroke-miterlimit="10" stroke-width="1.5" stroke-dasharray=""/><g class="dcg-svg-axis-line"><path fill="rgb(0,0,0)" stroke="rgb(0,0,0)" class="dcg-svg-axis-line" paint-order="stroke fill markers" d=" M 398.5 200 L 386.9088900845312 203.10582854123027 L 386.9088900845312 196.89417145876976 L 398.5 200 L 386.9088900845312 203.10582854123027" stroke-opacity="0.9" stroke-linejoin="round" stroke-miterlimit="10" stroke-width="1.5" stroke-dasharray="" fill-opacity="0.9"/></g></g></g><g><g class="dcg-svg-axis-value"><text fill="none" stroke="#ffffff" font-family="Arial" font-size="14px" font-style="normal" font-weight="normal" text-decoration="normal" x="191.10693359375" y="215.808" text-anchor="middle" stroke-miterlimit="2" stroke-width="3" stroke-dasharray="">0</text><text fill="#000000" stroke="none" font-family="Arial" font-size="14px" font-style="normal" font-weight="normal" text-decoration="normal" x="191.10693359375" y="215.808" text-anchor="middle">0</text></g><g class="dcg-svg-axis-value dcg-svg-offcenter-axis-value"><text fill="none" stroke="#ffffff" font-family="Arial" font-size="14px" font-style="normal" font-weight="normal" text-decoration="normal" x="13.1171875" y="215.808" text-anchor="middle" stroke-miterlimit="2" stroke-width="3" stroke-dasharray="">-10</text><text fill="#000000" stroke="none" font-family="Arial" font-size="14px" font-style="normal" font-weight="normal" text-decoration="normal" x="13.1171875" y="215.808" text-anchor="middle">-10</text></g><g class="dcg-svg-axis-value"><text fill="none" stroke="#ffffff" font-family="Arial" font-size="14px" font-style="normal" font-weight="normal" text-decoration="normal" x="97.6689453125" y="215.808" text-anchor="middle" stroke-miterlimit="2" stroke-width="3" stroke-dasharray="">-5</text><text fill="#000000" stroke="none" font-family="Arial" font-size="14px" font-style="normal" font-weight="normal" text-decoration="normal" x="97.6689453125" y="215.808" text-anchor="middle">-5</text></g><g class="dcg-svg-axis-value"><text fill="none" stroke="#ffffff" font-family="Arial" font-size="14px" font-style="normal" font-weight="normal" text-decoration="normal" x="300" y="215.808" text-anchor="middle" stroke-miterlimit="2" stroke-width="3" stroke-dasharray="">5</text><text fill="#000000" stroke="none" font-family="Arial" font-size="14px" font-style="normal" font-weight="normal" text-decoration="normal" x="300" y="215.808" text-anchor="middle">5</text></g><g class="dcg-svg-axis-value dcg-svg-offcenter-axis-value"><text fill="none" stroke="#ffffff" font-family="Arial" font-size="14px" font-style="normal" font-weight="normal" text-decoration="normal" x="389.2138671875" y="215.808" text-anchor="middle" stroke-miterlimit="2" stroke-width="3" stroke-dasharray="">10</text><text fill="#000000" stroke="none" font-family="Arial" font-size="14px" font-style="normal" font-weight="normal" text-decoration="normal" x="389.2138671875" y="215.808" text-anchor="middle">10</text></g><g class="dcg-svg-axis-value dcg-svg-offcenter-axis-value"><text fill="none" stroke="#ffffff" font-family="Arial" font-size="14px" font-style="normal" font-weight="normal" text-decoration="normal" x="184.8828125" y="393.808" text-anchor="middle" stroke-miterlimit="2" stroke-width="3" stroke-dasharray="">-10</text><text fill="#000000" stroke="none" font-family="Arial" font-size="14px" font-style="normal" font-weight="normal" text-decoration="normal" x="184.8828125" y="393.808" text-anchor="middle">-10</text></g><g class="dcg-svg-axis-value"><text fill="none" stroke="#ffffff" font-family="Arial" font-size="14px" font-style="normal" font-weight="normal" text-decoration="normal" x="188.77587890625" y="303.808" text-anchor="middle" stroke-miterlimit="2" stroke-width="3" stroke-dasharray="">-5</text><text fill="#000000" stroke="none" font-family="Arial" font-size="14px" font-style="normal" font-weight="normal" text-decoration="normal" x="188.77587890625" y="303.808" text-anchor="middle">-5</text></g><g class="dcg-svg-axis-value"><text fill="none" stroke="#ffffff" font-family="Arial" font-size="14px" font-style="normal" font-weight="normal" text-decoration="normal" x="191.10693359375" y="103.808" text-anchor="middle" stroke-miterlimit="2" stroke-width="3" stroke-dasharray="">5</text><text fill="#000000" stroke="none" font-family="Arial" font-size="14px" font-style="normal" font-weight="normal" text-decoration="normal" x="191.10693359375" y="103.808" text-anchor="middle">5</text></g><g class="dcg-svg-axis-value dcg-svg-offcenter-axis-value"><text fill="none" stroke="#ffffff" font-family="Arial" font-size="14px" font-style="normal" font-weight="normal" text-decoration="normal" x="187.2138671875" y="13.808" text-anchor="middle" stroke-miterlimit="2" stroke-width="3" stroke-dasharray="">10</text><text fill="#000000" stroke="none" font-family="Arial" font-size="14px" font-style="normal" font-weight="normal" text-decoration="normal" x="187.2138671875" y="13.808" text-anchor="middle">10</text></g></g></g></g><g id="expressions-c986ca68"><g id="sketch-c986ca68"><title>Expression 1</title><path fill="#c74440" stroke="none" paint-order="stroke fill markers" d="" fill-opacity="0.4"/><g><path fill="none" stroke="#c74440" class="dcg-svg-curve" paint-order="fill stroke markers" d=" M 0 212.96721654918173 L 0 212.96721654918173 L 2.5390625 209.61843652392645 L 5.6640625 206.01225627874985 L 9.9609375 201.54657497441582 L 18.06640625 193.19197190775387 L 21.09375 189.60136770543568 L 23.6328125 186.12797480916274 L 25.78125 182.6754286519515 L 27.5390625 179.3357753099489 L 29.1015625 175.8138063844794 L 30.46875 172.137568932124 L 31.73828125 168.0359261339721 L 32.8125 163.85495895884557 L 33.88671875 158.7740869062469 L 34.86328125 153.06946963782235 L 35.7421875 146.68909709347344 L 36.5234375 139.6169990889059 L 37.3046875 130.6526742200329 L 37.98828125 120.54914735478812 L 38.671875 107.26939575284595 L 39.2578125 92.0102074810178 L 39.84375 71.01424115554431 L 40.33203125 46.32430624499398 L 40.8203125 10.22931513058839 L 40.96105721015128 -5.5" stroke-linecap="round" stroke-linejoin="round" stroke-miterlimit="10" stroke-width="2.5" stroke-opacity="0.9" stroke-dasharray=""/></g><g><path fill="none" stroke="#c74440" class="dcg-svg-curve" paint-order="fill stroke markers" d=" M 44.88512907682402 405.5 L 44.88512907682402 405.5 L 45.21484375 373.5662128096087 L 45.703125 342.81351861497757 L 46.2890625 317.61530880079175 L 46.875 299.82553461514584 L 47.55859375 284.6882129312117 L 48.33984375 271.9924703899052 L 49.12109375 262.42829447968643 L 50 254.1202773354538 L 50.87890625 247.57920176168088 L 51.85546875 241.74849303976353 L 52.9296875 236.56923982334692 L 54.1015625 231.96724054537492 L 55.37109375 227.86505115179187 L 56.73828125 224.18838749039259 L 58.30078125 220.66606671469248 L 60.05859375 217.32613078103978 L 62.109375 214.01848338112643 L 64.55078125 210.64916101741733 L 67.48046875 207.13761029233999 L 71.2890625 203.07103190804693 L 82.12890625 191.7875362480873 L 84.9609375 188.24853203897493 L 87.3046875 184.8457242250368 L 89.2578125 181.51413073250632 L 90.91796875 178.1715359192354 L 92.3828125 174.6760913338388 L 93.75 170.77304431117392 L 94.921875 166.74945779669548 L 95.99609375 162.30495138776809 L 96.97265625 157.40447306804364 L 97.94921875 151.3654593377873 L 98.828125 144.55740802627352 L 99.609375 136.94420594022765 L 100.390625 127.19116041567585 L 101.07421875 116.05845426464353 L 101.66015625 103.61766495958835 L 102.24609375 87.08510015046033 L 102.83203125 63.99735394654044 L 103.3203125 36.33152253553516 L 103.80859375 -5.152558420583375 L 103.811209003787 -5.5" stroke-linecap="round" stroke-linejoin="round" stroke-miterlimit="10" stroke-width="2.5" stroke-opacity="0.9" stroke-dasharray=""/></g><g><path fill="none" stroke="#c74440" class="dcg-svg-curve" paint-order="fill stroke markers" d=" M 107.72060180488816 405.5 L 107.72060180488816 405.5 L 108.0078125 376.5845253118975 L 108.49609375 344.8635486334506 L 109.08203125 319.01494979010283 L 109.66796875 300.8430129712921 L 110.3515625 285.4304134049148 L 111.1328125 272.5390157825657 L 111.9140625 262.84858885949063 L 112.79296875 254.44560451398442 L 113.671875 247.83935358652053 L 114.6484375 241.9576587802803 L 115.72265625 236.7387277887663 L 116.89453125 232.10589607787884 L 118.1640625 227.97972665507393 L 119.53125 224.2843735438654 L 121.09375 220.74663039172066 L 122.8515625 217.39431220461063 L 124.90234375 214.07655056788425 L 127.34375 210.69912127705007 L 130.2734375 207.1814775579976 L 134.08203125 203.11084498383656 L 145.01953125 191.7187715293749 L 147.8515625 188.16933256642508 L 150.1953125 184.75300283705218 L 152.1484375 181.40485173423258 L 153.80859375 178.0423398629631 L 155.2734375 174.52252140954207 L 156.54296875 170.8946222831675 L 157.71484375 166.8953468684698 L 158.7890625 162.48131811408496 L 159.765625 157.61884722507438 L 160.7421875 151.63301357171184 L 161.62109375 144.89329690360088 L 162.40234375 137.36701249810892 L 163.18359375 127.7414772274999 L 163.8671875 116.77644578994516 L 164.55078125 102.17352520066528 L 165.13671875 85.12040506891474 L 165.625 65.81035204358611 L 166.11328125 38.93304091983893 L 166.6015625 -1.103061540798251 L 166.63616244814372 -5.5" stroke-linecap="round" stroke-linejoin="round" stroke-miterlimit="10" stroke-width="2.5" stroke-opacity="0.9" stroke-dasharray=""/></g><g><path fill="none" stroke="#c74440" class="dcg-svg-curve" paint-order="fill stroke markers" d=" M 170.54638401759092 405.5 L 170.54638401759092 405.5 L 170.8984375 372.06151277399397 L 171.38671875 341.78686627431773 L 171.97265625 316.9117540613689 L 172.65625 296.8664100199469 L 173.33984375 282.51708689698887 L 174.12109375 270.3858474637219 L 174.90234375 261.1882287313734 L 175.78125 253.1573208387455 L 176.7578125 246.1818033252185 L 177.734375 240.62087608912793 L 178.80859375 235.65256645100735 L 179.98046875 231.2151610896013 L 181.25 227.24143952752456 L 182.6171875 223.66520340732322 L 184.1796875 220.22597022003745 L 185.9375 216.95289052893105 L 187.98828125 213.69994669876962 L 190.4296875 210.3745121227911 L 193.45703125 206.7868370134897 L 197.36328125 202.65210172422118 L 207.421875 192.21756024874804 L 210.3515625 188.6129910804413 L 212.79296875 185.12004968789486 L 214.74609375 181.83681653724534 L 216.50390625 178.34122364284224 L 217.96875 174.87755174532563 L 219.3359375 171.01551422031764 L 220.5078125 167.04029997114864 L 221.58203125 162.65640301693668 L 222.55859375 157.8314622247187 L 223.53515625 151.89806360710358 L 224.4140625 145.22560626056708 L 225.1953125 137.7847016050298 L 225.9765625 128.28411676637776 L 226.66015625 117.48291310301113 L 227.34375 103.1335899800531 L 227.9296875 86.42761494576365 L 228.515625 63.05143107092508 L 229.00390625 34.96870291919652 L 229.39453125 2.79114066861996 L 229.46267169316673 -5.5" stroke-linecap="round" stroke-linejoin="round" stroke-miterlimit="10" stroke-width="2.5" stroke-opacity="0.9" stroke-dasharray=""/></g><g><path fill="none" stroke="#c74440" class="dcg-svg-curve" paint-order="fill stroke markers" d=" M 233.3826505890682 405.5 L 233.3826505890682 405.5 L 233.69140625 375.0279601656096 L 234.1796875 343.80788823320506 L 234.765625 318.2950737735101 L 235.3515625 300.32013853926543 L 236.03515625 285.049277498037 L 236.81640625 272.2585227725001 L 237.59765625 262.6329875018911 L 238.4765625 254.27878516451665 L 239.35546875 247.70599600399066 L 240.33203125 241.8504671506667 L 241.40625 236.6518913180846 L 242.578125 232.03487202879708 L 243.84765625 227.92099744631602 L 245.21484375 224.23522442864697 L 246.77734375 220.70538512454047 L 248.53515625 217.3594116799017 L 250.5859375 214.0468319638844 L 253.02734375 210.67355586649722 L 255.95703125 207.1590337682468 L 259.765625 203.09047937198386 L 270.703125 191.69546465131776 L 273.53515625 188.14247024373915 L 275.87890625 184.72153313865329 L 277.83203125 181.3677379842842 L 279.4921875 177.9984328395585 L 280.95703125 174.47029492130815 L 282.2265625 170.83252667570702 L 283.3984375 166.82084865106737 L 284.47265625 162.3912754661631 L 285.44921875 157.5094256021651 L 286.42578125 151.49648666137674 L 287.3046875 144.72195563259055 L 288.0859375 137.15141114050934 L 288.8671875 127.46098421743432 L 289.55078125 116.41068275238716 L 290.234375 101.6754027074141 L 290.8203125 84.44047585571803 L 291.30859375 64.8890338625267 L 291.796875 37.61274097640745 L 292.28515625 -3.1542169911423628 L 292.3032030412415 -5.5" stroke-linecap="round" stroke-linejoin="round" stroke-miterlimit="10" stroke-width="2.5" stroke-opacity="0.9" stroke-dasharray=""/></g><g><path fill="none" stroke="#c74440" class="dcg-svg-curve" paint-order="fill stroke markers" d=" M 296.20723307244845 405.5 L 296.20723307244845 405.5 L 296.58203125 370.5823389791114 L 297.16796875 336.00264605345956 L 297.75390625 312.91489984953967 L 298.4375 294.07108836262915 L 299.12109375 280.4487621214958 L 299.90234375 268.84433983409014 L 300.68359375 259.9919704234901 L 301.5625 252.22398625023195 L 302.5390625 245.44748464748858 L 303.515625 240.0255469854079 L 304.58984375 235.1665819813084 L 305.76171875 230.8149509006928 L 307.03125 226.9084851184815 L 308.3984375 223.38503101572647 L 309.9609375 219.98961344876358 L 311.71875 216.75189028831363 L 313.76953125 213.52793925318107 L 316.2109375 210.2257916900321 L 319.23828125 206.65601704029524 L 323.2421875 202.4334210965893 L 332.8125 192.53034779391612 L 335.7421875 188.97182691889003 L 338.18359375 185.54004956257506 L 340.234375 182.15440201102462 L 341.9921875 178.71880238547354 L 343.45703125 175.3248528855508 L 344.82421875 171.5525625118988 L 345.99609375 167.6828814045391 L 347.0703125 163.43076017665308 L 348.046875 158.7694102435205 L 349.0234375 153.0636727285867 L 349.90234375 146.68187544764325 L 350.68359375 139.60798627625678 L 351.46484375 130.64107068460703 L 352.1484375 120.53419458198687 L 352.83203125 107.24934886980209 L 353.41796875 91.9833366552981 L 354.00390625 70.97628424939484 L 354.4921875 46.270798346458065 L 354.98046875 10.148180995473297 L 355.12035553318185 -5.5" stroke-linecap="round" stroke-linejoin="round" stroke-miterlimit="10" stroke-width="2.5" stroke-opacity="0.9" stroke-dasharray=""/></g><g><path fill="none" stroke="#c74440" class="dcg-svg-curve" paint-order="fill stroke markers" d=" M 359.04429331608867 405.5 L 359.04429331608867 405.5 L 359.375 373.49825244731176 L 359.86328125 342.76721658416886 L 360.44921875 317.5836161693774 L 361.03515625 299.80245422718184 L 361.71875 284.6713513365676 L 362.5 271.98003795948523 L 363.28125 262.4187247632404 L 364.16015625 254.1128637787041 L 365.0390625 247.57326954512396 L 366.015625 241.7437206759156 L 367.08984375 236.56537075533072 L 368.26171875 231.9640738660279 L 369.53125 227.862431067876 L 370.8984375 224.1861936155206 L 372.4609375 220.6642246900511 L 374.21875 217.3245713480485 L 376.26953125 214.01715484155648 L 378.7109375 210.6480175755989 L 381.640625 207.1366059501065 L 385.44921875 203.07012001775203 L 396.2890625 191.7864951236385 L 399.12109375 188.2473335431435 L 400 187.03278345081827" stroke-linecap="round" stroke-linejoin="round" stroke-miterlimit="10" stroke-width="2.5" stroke-opacity="0.9" stroke-dasharray=""/></g></g></g><g id="labels-c986ca68"/></g></svg>