<?xml version="1.0" encoding="UTF-8"?>
<!--Generator: Apple Native CoreSVG 326-->
<!DOCTYPE svg
PUBLIC "-//W3C//DTD SVG 1.1//EN"
       "http://www.w3.org/Graphics/SVG/1.1/DTD/svg11.dtd">
<svg version="1.1" xmlns="http://www.w3.org/2000/svg" xmlns:xlink="http://www.w3.org/1999/xlink" viewBox="0 0 65 105.562">
 <g>
  <rect height="105.562" opacity="0" width="65" x="0" y="0"/>
  <path d="M13.6875 105.438L51.25 105.438C59.3125 105.438 65 100.125 65 92.5L65 12.9375C65 5.3125 59.3125 0 51.25 0L13.6875 0C5.625 0 0 5.3125 0 12.9375L0 92.5C0 100.125 5.625 105.438 13.6875 105.438ZM14.875 96.4375C11.25 96.4375 9 94.375 9 90.9375L9 14.5C9 11.0625 11.25 9 14.875 9L50.0625 9C53.75 9 55.9375 11.0625 55.9375 14.5L55.9375 90.9375C55.9375 94.375 53.75 96.4375 50.0625 96.4375ZM22 92.75L43.0625 92.75C44.5 92.75 45.5625 91.75 45.5625 90.25C45.5625 88.75 44.5 87.75 43.0625 87.75L22 87.75C20.5 87.75 19.5 88.75 19.5 90.25C19.5 91.75 20.5 92.75 22 92.75ZM26.4375 20.25L38.5625 20.25C40.625 20.25 42.3125 18.5625 42.3125 16.4375C42.3125 14.375 40.625 12.6875 38.5625 12.6875L26.4375 12.6875C24.3125 12.6875 22.625 14.375 22.625 16.4375C22.625 18.5625 24.3125 20.25 26.4375 20.25Z" fill="#98989d"/>
 </g>
</svg>
