<?xml version="1.0" encoding="UTF-8"?>
<!--Generator: Apple Native CoreSVG 326-->
<!DOCTYPE svg
PUBLIC "-//W3C//DTD SVG 1.1//EN"
       "http://www.w3.org/Graphics/SVG/1.1/DTD/svg11.dtd">
<svg version="1.1" xmlns="http://www.w3.org/2000/svg" xmlns:xlink="http://www.w3.org/1999/xlink" viewBox="0 0 62.7441 103.467">
 <g>
  <rect height="103.467" opacity="0" width="62.7441" x="0" y="0"/>
  <path d="M13.2812 103.369L49.4629 103.369C57.4219 103.369 62.7441 98.291 62.7441 90.6738L62.7441 12.6953C62.7441 5.07812 57.4219 0 49.4629 0L13.2812 0C5.32227 0 0 5.07812 0 12.6953L0 90.6738C0 98.291 5.32227 103.369 13.2812 103.369ZM14.3066 95.5078C10.1562 95.5078 7.86133 93.3105 7.86133 89.4043L7.86133 13.9648C7.86133 10.0586 10.1562 7.86133 14.3066 7.86133L48.4863 7.86133C52.5879 7.86133 54.8828 10.0586 54.8828 13.9648L54.8828 89.4043C54.8828 93.3105 52.5879 95.5078 48.4863 95.5078ZM21.0449 91.9434L41.7969 91.9434C43.1152 91.9434 44.043 91.0156 44.043 89.6484C44.043 88.2812 43.1152 87.4023 41.7969 87.4023L21.0449 87.4023C19.7266 87.4023 18.75 88.2812 18.75 89.6484C18.75 91.0156 19.7266 91.9434 21.0449 91.9434ZM25.4883 18.2129L37.3047 18.2129C39.209 18.2129 40.7227 16.6992 40.7227 14.7461C40.7227 12.8418 39.209 11.3281 37.3047 11.3281L25.4883 11.3281C23.5352 11.3281 22.0215 12.8418 22.0215 14.7461C22.0215 16.6992 23.5352 18.2129 25.4883 18.2129Z" fill="#98989d"/>
 </g>
</svg>
