<svg version="1.1" xmlns="http://www.w3.org/2000/svg" xmlns:xlink="http://www.w3.org/1999/xlink" width="800" height="800"><defs/><g transform="scale(2,2)"><g id="background-e0a66db9"><rect fill="white" stroke="none" x="0" y="0" width="400" height="400" class="dcg-svg-background"/></g><g id="background-images-e0a66db9"/><g id="graphpaper-e0a66db9"><g id="axis-e0a66db9"><g id="yaxis-e0a66db9"><title>Y axis</title><g><path fill="none" stroke="rgb(0,0,0)" class="dcg-svg-axis-line" paint-order="fill stroke markers" d=" M 80 3 L 80 400" stroke-opacity="0.9" stroke-miterlimit="10" stroke-width="1.5" stroke-dasharray=""/><g class="dcg-svg-axis-line"><path fill="rgb(0,0,0)" stroke="rgb(0,0,0)" class="dcg-svg-axis-line" paint-order="stroke fill markers" d=" M 80 1.5 L 83.10582854123025 13.09110991546882 L 76.89417145876975 13.09110991546882 L 80 1.5 L 83.10582854123025 13.09110991546882" stroke-opacity="0.9" stroke-linejoin="round" stroke-miterlimit="10" stroke-width="1.5" stroke-dasharray="" fill-opacity="0.9"/></g></g></g><g id="xaxis-e0a66db9"><title>X axis</title><g><path fill="none" stroke="rgb(0,0,0)" class="dcg-svg-axis-line" paint-order="fill stroke markers" d=" M 0 320 L 397 320" stroke-opacity="0.9" stroke-miterlimit="10" stroke-width="1.5" stroke-dasharray=""/><g class="dcg-svg-axis-line"><path fill="rgb(0,0,0)" stroke="rgb(0,0,0)" class="dcg-svg-axis-line" paint-order="stroke fill markers" d=" M 398.5 320 L 386.9088900845312 323.10582854123027 L 386.9088900845312 316.89417145876973 L 398.5 320 L 386.9088900845312 323.10582854123027" stroke-opacity="0.9" stroke-linejoin="round" stroke-miterlimit="10" stroke-width="1.5" stroke-dasharray="" fill-opacity="0.9"/></g></g></g><g><g><path fill="none" stroke="rgb(0,0,0)" class="dcg-svg-tickmark" paint-order="fill stroke markers" d="" stroke-opacity="0.9" stroke-miterlimit="2" stroke-width="1.5" stroke-dasharray=""/></g></g></g></g><g id="expressions-e0a66db9"><g id="sketch-e0a66db9"><title>Expression 1</title><path fill="#c74440" stroke="none" paint-order="stroke fill markers" d="" fill-opacity="0.4"/><g><path fill="none" stroke="#c74440" class="dcg-svg-curve" paint-order="fill stroke markers" d=" M 0 384 L 0 384 L 400 64" stroke-linecap="round" stroke-linejoin="round" stroke-miterlimit="10" stroke-width="2.5" stroke-opacity="0.9" stroke-dasharray=""/></g></g><g id="sketch-e0a66db9"><title>( x1 , y1 )</title><path fill="none" stroke="#000000" class="dcg-svg-point" paint-order="fill stroke markers" d=" M 159.9 255.9 L 159.9 256.1 L 160.1 256.1 L 160.1 255.9" stroke-linecap="round" stroke-linejoin="round" stroke-miterlimit="10" stroke-width="7.5" stroke-opacity="0.9" stroke-dasharray=""/></g><g id="sketch-e0a66db9"><title>( x2 , y2 )</title><path fill="none" stroke="#000000" class="dcg-svg-point" paint-order="fill stroke markers" d=" M 319.9 127.9 L 319.9 128.1 L 320.1 128.1 L 320.1 127.9" stroke-linecap="round" stroke-linejoin="round" stroke-miterlimit="10" stroke-width="7.5" stroke-opacity="0.9" stroke-dasharray=""/></g><g id="sketch-e0a66db9"><title>Expression 4</title><path fill="#000000" stroke="none" paint-order="stroke fill markers" d="" fill-opacity="0.4"/><g><path fill="none" stroke="#000000" class="dcg-svg-curve" paint-order="fill stroke markers" d=" M 160 256 L 171 256 M 178 256 L 189 256 M 196 256 L 207 256 M 214 256 L 225 256 M 232 256 L 243 256 M 250 256 L 261 256 M 268 256 L 279 256 M 286 256 L 297 256 M 304 256 L 315 256" stroke-linecap="round" stroke-linejoin="round" stroke-miterlimit="10" stroke-width="2.5" stroke-opacity="0.9" stroke-dasharray=""/></g></g><g id="sketch-e0a66db9"><title>Expression 5</title><path fill="#000000" stroke="none" paint-order="stroke fill markers" d="" fill-opacity="0.4"/><g><path fill="none" stroke="#000000" class="dcg-svg-curve" paint-order="fill stroke markers" d=" M 320 256 L 320 245 M 320 238 L 320 227 M 320 220 L 320 209 M 320 202 L 320 191 M 320 184 L 320 173 M 320 166 L 320 155 M 320 148 L 320 137 M 320 130 L 320 128" stroke-linecap="round" stroke-linejoin="round" stroke-miterlimit="10" stroke-width="2.5" stroke-opacity="0.9" stroke-dasharray=""/></g></g></g><g id="labels-e0a66db9"><g transform="rotate(0,0,0) translate(160,256)"><g class="dcg-svg-label"><g transform="translate(-71.1875,-25)"><g><text fill="none" stroke="#FFF" font-family="arial, sans-serif" font-size="15.4px" font-style="normal" font-weight="400" text-decoration="normal" x="0" y="13.4888" text-anchor="start" stroke-linecap="round" stroke-linejoin="round" stroke-miterlimit="2" stroke-width="3" stroke-opacity="0.9" stroke-dasharray="">( x1 , y1 )</text></g></g><g transform="translate(-71.1875,-25)"><g><text fill="rgb(0, 0, 0)" stroke="none" font-family="arial, sans-serif" font-size="15.4px" font-style="normal" font-weight="400" text-decoration="normal" x="0" y="13.4888" text-anchor="start" fill-opacity="0.9">( x1 , y1 )</text></g></g></g></g><g transform="rotate(0,0,0) translate(320,128)"><g class="dcg-svg-label"><g transform="translate(-71.1875,-25)"><g><text fill="none" stroke="#FFF" font-family="arial, sans-serif" font-size="15.4px" font-style="normal" font-weight="400" text-decoration="normal" x="0" y="13.4888" text-anchor="start" stroke-linecap="round" stroke-linejoin="round" stroke-miterlimit="2" stroke-width="3" stroke-opacity="0.9" stroke-dasharray="">( x2 , y2 )</text></g></g><g transform="translate(-71.1875,-25)"><g><text fill="rgb(0, 0, 0)" stroke="none" font-family="arial, sans-serif" font-size="15.4px" font-style="normal" font-weight="400" text-decoration="normal" x="0" y="13.4888" text-anchor="start" fill-opacity="0.9">( x2 , y2 )</text></g></g></g></g></g></g></svg>