<svg version="1.1" xmlns="http://www.w3.org/2000/svg" xmlns:xlink="http://www.w3.org/1999/xlink" width="800" height="800"><defs/><g transform="scale(2,2)"><g id="background-ab80c90a"><rect fill="white" stroke="none" x="0" y="0" width="400" height="400" class="dcg-svg-background"/></g><g id="background-images-ab80c90a"/><g id="graphpaper-ab80c90a"><g id="grid-ab80c90a"><g><path fill="none" stroke="rgb(0,0,0)" class="dcg-svg-minor-gridline" paint-order="fill stroke markers" d=" M 40.5 0 L 40.5 400" stroke-opacity="0.2" stroke-miterlimit="10" stroke-dasharray=""/><path fill="none" stroke="rgb(0,0,0)" class="dcg-svg-minor-gridline" paint-order="fill stroke markers" d=" M 120.5 0 L 120.5 400" stroke-opacity="0.2" stroke-miterlimit="10" stroke-dasharray=""/><path fill="none" stroke="rgb(0,0,0)" class="dcg-svg-minor-gridline" paint-order="fill stroke markers" d=" M 280.5 0 L 280.5 400" stroke-opacity="0.2" stroke-miterlimit="10" stroke-dasharray=""/><path fill="none" stroke="rgb(0,0,0)" class="dcg-svg-minor-gridline" paint-order="fill stroke markers" d=" M 360.5 0 L 360.5 400" stroke-opacity="0.2" stroke-miterlimit="10" stroke-dasharray=""/><path fill="none" stroke="rgb(0,0,0)" class="dcg-svg-minor-gridline" paint-order="fill stroke markers" d=" M 0 360.5 L 400 360.5" stroke-opacity="0.2" stroke-miterlimit="10" stroke-dasharray=""/><path fill="none" stroke="rgb(0,0,0)" class="dcg-svg-minor-gridline" paint-order="fill stroke markers" d=" M 0 280.5 L 400 280.5" stroke-opacity="0.2" stroke-miterlimit="10" stroke-dasharray=""/><path fill="none" stroke="rgb(0,0,0)" class="dcg-svg-minor-gridline" paint-order="fill stroke markers" d=" M 0 120.5 L 400 120.5" stroke-opacity="0.2" stroke-miterlimit="10" stroke-dasharray=""/><path fill="none" stroke="rgb(0,0,0)" class="dcg-svg-minor-gridline" paint-order="fill stroke markers" d=" M 0 40.5 L 400 40.5" stroke-opacity="0.2" stroke-miterlimit="10" stroke-dasharray=""/><path fill="none" stroke="rgb(0,0,0)" class="dcg-svg-major-gridline" paint-order="fill stroke markers" d=" M 40.5 0 L 40.5 400" stroke-opacity="0.2500000000000001" stroke-miterlimit="10" stroke-dasharray=""/><path fill="none" stroke="rgb(0,0,0)" class="dcg-svg-major-gridline" paint-order="fill stroke markers" d=" M 120.5 0 L 120.5 400" stroke-opacity="0.2500000000000001" stroke-miterlimit="10" stroke-dasharray=""/><path fill="none" stroke="rgb(0,0,0)" class="dcg-svg-major-gridline" paint-order="fill stroke markers" d=" M 280.5 0 L 280.5 400" stroke-opacity="0.2500000000000001" stroke-miterlimit="10" stroke-dasharray=""/><path fill="none" stroke="rgb(0,0,0)" class="dcg-svg-major-gridline" paint-order="fill stroke markers" d=" M 360.5 0 L 360.5 400" stroke-opacity="0.2500000000000001" stroke-miterlimit="10" stroke-dasharray=""/><path fill="none" stroke="rgb(0,0,0)" class="dcg-svg-major-gridline" paint-order="fill stroke markers" d=" M 0 360.5 L 400 360.5" stroke-opacity="0.2500000000000001" stroke-miterlimit="10" stroke-dasharray=""/><path fill="none" stroke="rgb(0,0,0)" class="dcg-svg-major-gridline" paint-order="fill stroke markers" d=" M 0 280.5 L 400 280.5" stroke-opacity="0.2500000000000001" stroke-miterlimit="10" stroke-dasharray=""/><path fill="none" stroke="rgb(0,0,0)" class="dcg-svg-major-gridline" paint-order="fill stroke markers" d=" M 0 120.5 L 400 120.5" stroke-opacity="0.2500000000000001" stroke-miterlimit="10" stroke-dasharray=""/><path fill="none" stroke="rgb(0,0,0)" class="dcg-svg-major-gridline" paint-order="fill stroke markers" d=" M 0 40.5 L 400 40.5" stroke-opacity="0.2500000000000001" stroke-miterlimit="10" stroke-dasharray=""/></g></g><g id="axis-ab80c90a"><g id="yaxis-ab80c90a"><title>Y axis</title><g><path fill="none" stroke="rgb(0,0,0)" class="dcg-svg-axis-line" paint-order="fill stroke markers" d=" M 200 3 L 200 400" stroke-opacity="0.9" stroke-miterlimit="10" stroke-width="1.5" stroke-dasharray=""/><g class="dcg-svg-axis-line"><path fill="rgb(0,0,0)" stroke="rgb(0,0,0)" class="dcg-svg-axis-line" paint-order="stroke fill markers" d=" M 200 1.5 L 203.10582854123024 13.09110991546882 L 196.89417145876976 13.09110991546882 L 200 1.5 L 203.10582854123024 13.09110991546882" stroke-opacity="0.9" stroke-linejoin="round" stroke-miterlimit="10" stroke-width="1.5" stroke-dasharray="" fill-opacity="0.9"/></g></g></g><g id="xaxis-ab80c90a"><title>X axis</title><g><path fill="none" stroke="rgb(0,0,0)" class="dcg-svg-axis-line" paint-order="fill stroke markers" d=" M 0 200 L 397 200" stroke-opacity="0.9" stroke-miterlimit="10" stroke-width="1.5" stroke-dasharray=""/><g class="dcg-svg-axis-line"><path fill="rgb(0,0,0)" stroke="rgb(0,0,0)" class="dcg-svg-axis-line" paint-order="stroke fill markers" d=" M 398.5 200 L 386.9088900845312 203.10582854123027 L 386.9088900845312 196.89417145876976 L 398.5 200 L 386.9088900845312 203.10582854123027" stroke-opacity="0.9" stroke-linejoin="round" stroke-miterlimit="10" stroke-width="1.5" stroke-dasharray="" fill-opacity="0.9"/></g></g></g><g><g class="dcg-svg-axis-value"><text fill="none" stroke="#ffffff" font-family="Arial" font-size="14px" font-style="normal" font-weight="normal" text-decoration="normal" x="191.10693359375" y="215.808" text-anchor="middle" stroke-miterlimit="2" stroke-width="3" stroke-dasharray="">0</text><text fill="#000000" stroke="none" font-family="Arial" font-size="14px" font-style="normal" font-weight="normal" text-decoration="normal" x="191.10693359375" y="215.808" text-anchor="middle">0</text></g><g class="dcg-svg-axis-value"><text fill="none" stroke="#ffffff" font-family="Arial" font-size="14px" font-style="normal" font-weight="normal" text-decoration="normal" x="37.6689453125" y="215.808" text-anchor="middle" stroke-miterlimit="2" stroke-width="3" stroke-dasharray="">-4</text><text fill="#000000" stroke="none" font-family="Arial" font-size="14px" font-style="normal" font-weight="normal" text-decoration="normal" x="37.6689453125" y="215.808" text-anchor="middle">-4</text></g><g class="dcg-svg-axis-value"><text fill="none" stroke="#ffffff" font-family="Arial" font-size="14px" font-style="normal" font-weight="normal" text-decoration="normal" x="117.6689453125" y="215.808" text-anchor="middle" stroke-miterlimit="2" stroke-width="3" stroke-dasharray="">-2</text><text fill="#000000" stroke="none" font-family="Arial" font-size="14px" font-style="normal" font-weight="normal" text-decoration="normal" x="117.6689453125" y="215.808" text-anchor="middle">-2</text></g><g class="dcg-svg-axis-value"><text fill="none" stroke="#ffffff" font-family="Arial" font-size="14px" font-style="normal" font-weight="normal" text-decoration="normal" x="280" y="215.808" text-anchor="middle" stroke-miterlimit="2" stroke-width="3" stroke-dasharray="">2</text><text fill="#000000" stroke="none" font-family="Arial" font-size="14px" font-style="normal" font-weight="normal" text-decoration="normal" x="280" y="215.808" text-anchor="middle">2</text></g><g class="dcg-svg-axis-value"><text fill="none" stroke="#ffffff" font-family="Arial" font-size="14px" font-style="normal" font-weight="normal" text-decoration="normal" x="360" y="215.808" text-anchor="middle" stroke-miterlimit="2" stroke-width="3" stroke-dasharray="">4</text><text fill="#000000" stroke="none" font-family="Arial" font-size="14px" font-style="normal" font-weight="normal" text-decoration="normal" x="360" y="215.808" text-anchor="middle">4</text></g><g class="dcg-svg-axis-value"><text fill="none" stroke="#ffffff" font-family="Arial" font-size="14px" font-style="normal" font-weight="normal" text-decoration="normal" x="188.77587890625" y="363.808" text-anchor="middle" stroke-miterlimit="2" stroke-width="3" stroke-dasharray="">-4</text><text fill="#000000" stroke="none" font-family="Arial" font-size="14px" font-style="normal" font-weight="normal" text-decoration="normal" x="188.77587890625" y="363.808" text-anchor="middle">-4</text></g><g class="dcg-svg-axis-value"><text fill="none" stroke="#ffffff" font-family="Arial" font-size="14px" font-style="normal" font-weight="normal" text-decoration="normal" x="188.77587890625" y="283.808" text-anchor="middle" stroke-miterlimit="2" stroke-width="3" stroke-dasharray="">-2</text><text fill="#000000" stroke="none" font-family="Arial" font-size="14px" font-style="normal" font-weight="normal" text-decoration="normal" x="188.77587890625" y="283.808" text-anchor="middle">-2</text></g><g class="dcg-svg-axis-value"><text fill="none" stroke="#ffffff" font-family="Arial" font-size="14px" font-style="normal" font-weight="normal" text-decoration="normal" x="191.10693359375" y="123.808" text-anchor="middle" stroke-miterlimit="2" stroke-width="3" stroke-dasharray="">2</text><text fill="#000000" stroke="none" font-family="Arial" font-size="14px" font-style="normal" font-weight="normal" text-decoration="normal" x="191.10693359375" y="123.808" text-anchor="middle">2</text></g><g class="dcg-svg-axis-value"><text fill="none" stroke="#ffffff" font-family="Arial" font-size="14px" font-style="normal" font-weight="normal" text-decoration="normal" x="191.10693359375" y="43.808" text-anchor="middle" stroke-miterlimit="2" stroke-width="3" stroke-dasharray="">4</text><text fill="#000000" stroke="none" font-family="Arial" font-size="14px" font-style="normal" font-weight="normal" text-decoration="normal" x="191.10693359375" y="43.808" text-anchor="middle">4</text></g></g></g></g><g id="expressions-ab80c90a"><g id="sketch-ab80c90a"><title>Expression 1</title><path fill="#c74440" stroke="none" paint-order="stroke fill markers" d="" fill-opacity="0.4"/><g><path fill="none" stroke="#c74440" class="dcg-svg-curve" paint-order="fill stroke markers" d=" M 40 200 L 40 200 L 40.13671875 206.61296514306542 L 40.52734375 212.97967289916568 L 41.11328125 218.84172510303657 L 41.89453125 224.54914970712375 L 42.87109375 230.174605559621 L 44.04296875 235.74079467060747 L 45.41015625 241.2550628329492 L 47.0703125 247.03733284479833 L 48.92578125 252.6932673980002 L 50.9765625 258.24100853937534 L 53.3203125 263.91454666116584 L 55.859375 269.4512795030399 L 58.69140625 275.04586152745173 L 61.81640625 280.6554053882005 L 65.234375 286.2451524339738 L 68.9453125 291.78599503343276 L 73.046875 297.380203597725 L 77.44140625 302.85616703932953 L 82.03125 308.08965733795947 L 86.81640625 313.0905571028588 L 91.69921875 317.77495820691104 L 96.77734375 322.25008481262637 L 101.953125 326.43895880121113 L 107.32421875 330.42698942206 L 112.79296875 334.14519633800353 L 118.359375 337.6038093571881 L 124.0234375 340.8103758630151 L 129.8828125 343.8178709934542 L 135.83984375 346.57242015459656 L 141.89453125 349.0763378318061 L 147.94921875 351.29678176109576 L 154.1015625 353.27535168792986 L 160.3515625 355.0096816454011 L 166.69921875 356.49619154516074 L 173.046875 357.71343967060756 L 179.39453125 358.66762321782215 L 185.83984375 359.3721744062482 L 192.28515625 359.8138954719304 L 198.73046875 359.9949633282413 L 205.17578125 359.91626336446257 L 211.62109375 359.5774112462466 L 218.06640625 358.97674347277956 L 224.51171875 358.111276144116 L 230.859375 356.9958565523606 L 237.20703125 355.6137424058734 L 243.45703125 353.9853448706614 L 249.609375 352.11479189122065 L 255.76171875 349.96876582157336 L 261.81640625 347.57619021486823 L 267.7734375 344.9370938353381 L 273.6328125 342.0500226094309 L 279.39453125 338.91187281004017 L 284.9609375 335.5789035916764 L 290.4296875 331.9942105497523 L 295.80078125 328.14917210770284 L 300.9765625 324.1117795605381 L 306.0546875 319.8015160975743 L 310.9375 315.29471407549437 L 315.72265625 310.49102601770124 L 320.3125 305.4746526126064 L 324.70703125 300.2404926006029 L 329.00390625 294.6466701592888 L 333.0078125 288.9321191356916 L 336.71875 283.1142791488773 L 340.0390625 277.3890236023242 L 343.06640625 271.638002503629 L 345.80078125 265.89485705948266 L 348.2421875 260.2017760968465 L 350.390625 254.61373373162996 L 352.34375 248.90175698211158 L 354.00390625 243.39120717082218 L 355.46875 237.80830296955287 L 356.73828125 232.14204708471286 L 357.8125 226.3669270820473 L 358.59375 221.16654107164183 L 359.27734375 215.18972573631058 L 359.66796875 210.30241502022818 L 359.86328125 206.61296514306542 L 360 200" stroke-linecap="round" stroke-linejoin="round" stroke-miterlimit="10" stroke-width="2.5" stroke-opacity="0.9" stroke-dasharray=""/></g><path fill="#c74440" stroke="none" paint-order="stroke fill markers" d="" fill-opacity="0.4"/><g><path fill="none" stroke="#c74440" class="dcg-svg-curve" paint-order="fill stroke markers" d=" M 40 200 L 40 200 L 40.13671875 193.38703485693458 L 40.52734375 187.02032710083432 L 41.11328125 181.15827489696343 L 41.89453125 175.45085029287625 L 42.87109375 169.825394440379 L 44.04296875 164.25920532939253 L 45.41015625 158.7449371670508 L 47.0703125 152.96266715520167 L 48.92578125 147.3067326019998 L 50.9765625 141.75899146062463 L 53.3203125 136.08545333883416 L 55.859375 130.54872049696007 L 58.69140625 124.95413847254827 L 61.81640625 119.34459461179952 L 65.234375 113.7548475660262 L 68.9453125 108.21400496656723 L 73.046875 102.619796402275 L 77.44140625 97.14383296067047 L 82.03125 91.9103426620405 L 86.81640625 86.90944289714123 L 91.69921875 82.22504179308893 L 96.77734375 77.74991518737365 L 101.953125 73.56104119878884 L 107.32421875 69.57301057794001 L 112.79296875 65.85480366199644 L 118.359375 62.39619064281189 L 124.0234375 59.18962413698489 L 129.8828125 56.18212900654578 L 135.83984375 53.42757984540344 L 141.89453125 50.923662168193914 L 147.94921875 48.70321823890421 L 154.1015625 46.724648312070116 L 160.3515625 44.99031835459891 L 166.69921875 43.50380845483923 L 173.046875 42.286560329392444 L 179.39453125 41.332376782177846 L 185.83984375 40.62782559375182 L 192.28515625 40.18610452806962 L 198.73046875 40.00503667175872 L 205.17578125 40.083736635537434 L 211.62109375 40.422588753753416 L 218.06640625 41.02325652722044 L 224.51171875 41.888723855884024 L 230.859375 43.00414344763942 L 237.20703125 44.38625759412659 L 243.45703125 46.01465512933862 L 249.609375 47.885208108779324 L 255.76171875 50.03123417842667 L 261.81640625 52.423809785131795 L 267.7734375 55.06290616466191 L 273.6328125 57.949977390569046 L 279.39453125 61.088127189959835 L 284.9609375 64.42109640832356 L 290.4296875 68.0057894502477 L 295.80078125 71.85082789229713 L 300.9765625 75.88822043946193 L 306.0546875 80.19848390242574 L 310.9375 84.70528592450563 L 315.72265625 89.50897398229876 L 320.3125 94.5253473873936 L 324.70703125 99.75950739939711 L 329.00390625 105.35332984071118 L 333.0078125 111.0678808643084 L 336.71875 116.8857208511227 L 340.0390625 122.61097639767578 L 343.06640625 128.36199749637098 L 345.80078125 134.10514294051737 L 348.2421875 139.79822390315346 L 350.390625 145.38626626837004 L 352.34375 151.09824301788842 L 354.00390625 156.60879282917782 L 355.46875 162.19169703044713 L 356.73828125 167.85795291528714 L 357.8125 173.6330729179527 L 358.59375 178.83345892835817 L 359.27734375 184.81027426368942 L 359.66796875 189.69758497977182 L 359.86328125 193.38703485693458 L 360 200" stroke-linecap="round" stroke-linejoin="round" stroke-miterlimit="10" stroke-width="2.5" stroke-opacity="0.9" stroke-dasharray=""/></g></g><g id="sketch-ab80c90a"><title>Expression 2</title><path fill="#000000" stroke="none" paint-order="stroke fill markers" d="" fill-opacity="0.4"/><g><path fill="none" stroke="#000000" class="dcg-svg-curve" paint-order="fill stroke markers" d=" M 120 338.56 L 120 338.56 L 120 61.44" stroke-linecap="round" stroke-linejoin="round" stroke-miterlimit="10" stroke-width="2.5" stroke-opacity="0.9" stroke-dasharray=""/></g></g><g id="sketch-ab80c90a"><title>Expression 3</title><path fill="#000000" stroke="none" paint-order="stroke fill markers" d="" fill-opacity="0.4"/><g><path fill="none" stroke="#000000" class="dcg-svg-curve" paint-order="fill stroke markers" d=" M 240 354.92 L 240 354.92 L 240 45.079999999999984" stroke-linecap="round" stroke-linejoin="round" stroke-miterlimit="10" stroke-width="2.5" stroke-opacity="0.9" stroke-dasharray=""/></g></g><g id="sketch-ab80c90a"><title>Expression 4</title><path fill="#000000" stroke="none" paint-order="stroke fill markers" d="" fill-opacity="0.4"/><g><path fill="none" stroke="#000000" class="dcg-svg-curve" paint-order="fill stroke markers" d=" M 300 324.88 L 300 324.88 L 300 75.12" stroke-linecap="round" stroke-linejoin="round" stroke-miterlimit="10" stroke-width="2.5" stroke-opacity="0.9" stroke-dasharray=""/></g></g></g><g id="labels-ab80c90a"/></g></svg>